<svg width="885" height="331" viewBox="0 0 885 331" fill="none" xmlns="http://www.w3.org/2000/svg">
<path d="M885 331L744.172 150.28C727.343 128.683 701.119 116 673.295 116L211.705 116C183.881 116 157.657 128.683 140.827 150.28L0 331L885 331Z" fill="#FAFAFA"/>
<path d="M719.695 286H166.254C166.102 286 166 285.6 166 285C166 284.4 166.102 284 166.254 284H719.746C719.898 284 720 284.4 720 285C720 285.6 719.847 286 719.695 286Z" fill="#CCCCCC"/>
<path d="M675.592 220.291L654.216 243.363L654.356 200.925H653.797L653.75 221.495L635.681 203.196L635.309 203.566L653.75 222.283L653.611 260.736H654.169L654.216 244.15L675.964 220.662L675.592 220.291Z" fill="#21252B"/>
<path d="M637.777 243.316L637.404 243.687L646.811 252.489L648.302 260.782L648.814 260.69L642.9 227.518L642.341 227.611L646.672 251.609L637.777 243.316Z" fill="#21252B"/>
<path d="M644.716 284.642H657.988C660.457 284.642 662.506 282.649 662.506 280.148V262.682H640.199V280.148C640.199 282.603 642.201 284.642 644.716 284.642Z" fill="#AAAAAA"/>
<path d="M654.077 200.972C661.742 200.972 667.954 194.791 667.954 187.166C667.954 179.541 661.742 173.36 654.077 173.36C646.411 173.36 640.199 179.541 640.199 187.166C640.199 194.791 646.411 200.972 654.077 200.972Z" fill="#61A0FF"/>
<path d="M641.642 228.908C647.119 228.908 651.562 224.49 651.562 219.04C651.562 213.59 647.119 209.172 641.642 209.172C636.166 209.172 631.723 213.59 631.723 219.04C631.723 224.49 636.166 228.908 641.642 228.908Z" fill="#61A0FF"/>
<g opacity="0.3">
<path opacity="0.3" d="M641.642 228.908C647.119 228.908 651.562 224.49 651.562 219.04C651.562 213.59 647.119 209.172 641.642 209.172C636.166 209.172 631.723 213.59 631.723 219.04C631.723 224.49 636.166 228.908 641.642 228.908Z" fill="white"/>
</g>
<g opacity="0.3">
<path opacity="0.3" d="M654.077 200.972C661.742 200.972 667.954 194.791 667.954 187.166C667.954 179.541 661.742 173.36 654.077 173.36C646.411 173.36 640.199 179.541 640.199 187.166C640.199 194.791 646.411 200.972 654.077 200.972Z" fill="white"/>
</g>
<path d="M632.794 206.578C636.059 206.578 638.709 203.943 638.709 200.694C638.709 197.444 636.059 194.81 632.794 194.81C629.53 194.81 626.88 197.444 626.88 200.694C626.88 203.943 629.53 206.578 632.794 206.578Z" fill="#61A0FF"/>
<path d="M632.654 245.911C636.538 245.911 639.686 242.778 639.686 238.915C639.686 235.051 636.538 231.919 632.654 231.919C628.77 231.919 625.622 235.051 625.622 238.915C625.622 242.778 628.77 245.911 632.654 245.911Z" fill="#61A0FF"/>
<path d="M670.283 235.44C675.247 235.44 679.271 231.437 679.271 226.499C679.271 221.561 675.247 217.557 670.283 217.557C665.319 217.557 661.295 221.561 661.295 226.499C661.295 231.437 665.319 235.44 670.283 235.44Z" fill="#61A0FF"/>
<path d="M662.971 260.319H639.733C639.081 260.319 638.568 260.829 638.568 261.477C638.568 262.126 639.081 262.635 639.733 262.635H662.971C663.623 262.635 664.135 262.126 664.135 261.477C664.135 260.829 663.623 260.319 662.971 260.319Z" fill="#AAAAAA"/>
<path d="M640.199 187.166C640.199 179.522 646.439 173.36 654.077 173.36V201.018C646.393 200.972 640.199 194.81 640.199 187.166Z" fill="#61A0FF"/>
<path d="M643.086 228.815C637.731 229.603 632.748 225.989 631.816 220.661C630.931 215.426 634.378 210.423 639.593 209.357L643.086 228.815Z" fill="#61A0FF"/>
<path opacity="0.3" d="M628.603 204.863C626.274 202.593 626.228 198.841 628.556 196.524C628.556 196.524 628.603 196.478 628.649 196.478L636.939 204.91C634.657 207.133 630.931 207.133 628.603 204.863Z" fill="black"/>
<path opacity="0.3" d="M637.637 243.826C634.89 246.606 630.419 246.606 627.671 243.872C624.924 241.185 624.877 236.784 627.532 234.051L637.777 243.641C637.777 243.733 637.73 243.78 637.637 243.826Z" fill="black"/>
<path d="M662.459 262.682H642.154C641.502 262.682 640.99 262.172 640.99 261.524C640.99 260.875 641.502 260.365 642.154 260.365H639.686C639.034 260.365 638.522 260.875 638.522 261.524C638.522 262.172 639.034 262.682 639.686 262.682H640.152V263.052V280.148C640.152 282.603 642.154 284.642 644.669 284.642H651.748C651.841 284.642 651.887 284.642 651.887 284.642C648.721 284.642 646.02 282.418 645.414 279.36L642.201 263.052H662.412V262.682H662.459Z" fill="#929191"/>
<path opacity="0.3" d="M676.383 219.92C676.337 219.874 676.29 219.874 676.29 219.828L664.182 233.031L664.229 233.078C667.861 236.413 673.589 236.182 676.942 232.568C680.249 228.908 680.016 223.256 676.383 219.92Z" fill="black"/>
<path opacity="0.4" d="M232.45 83.3764H227.411V103.019V282.371H228.845V85.3733H232.45V83.3764Z" fill="black"/>
<path d="M219.873 83.3765H239.946C241.789 83.3765 243.305 81.8686 243.305 80.0347V69.6428H216.555V80.0347C216.555 81.8686 218.03 83.3765 219.873 83.3765Z" fill="#AAAAAA"/>
<path d="M227.392 282.347H232.43V83.3511H227.392V282.347Z" fill="#AAAAAA"/>
<path d="M232.45 83.3764H227.411V277.725H228.804V85.251H232.45V83.3764Z" fill="#21252B"/>
<path d="M219.914 80.0347V77.3858H216.555V80.0347C216.555 81.8686 218.071 83.3764 219.914 83.3764H223.273C221.389 83.3764 219.914 81.8686 219.914 80.0347Z" fill="#21252B"/>
<path d="M202.955 284.776C202.013 284.776 201.685 283.471 202.545 283.064C210.492 279.233 219.873 276.992 229.91 276.992C239.946 276.992 249.327 279.192 257.274 283.064C258.134 283.471 257.847 284.776 256.864 284.776H202.955Z" fill="#AAAAAA"/>
<path d="M233.023 277.073C231.999 277.033 230.974 276.992 229.95 276.992C219.914 276.992 210.533 279.192 202.586 283.064C201.726 283.471 202.012 284.776 202.996 284.776H212.131C214.548 281.515 223.478 277.685 233.023 277.073Z" fill="#21252B"/>
<path d="M251.17 147.113C251.047 147.113 250.965 147.032 250.965 146.91V77.6303C250.965 77.508 251.047 77.4265 251.17 77.4265C251.293 77.4265 251.374 77.508 251.374 77.6303V146.91C251.374 147.032 251.252 147.113 251.17 147.113Z" fill="#21252B"/>
<path d="M212.745 21.4732H247.483L266.818 76.3669H193L212.745 21.4732Z" fill="#61A0FF"/>
<path d="M212.745 21.4732H223.723L216.145 76.3669H193L212.745 21.4732Z" fill="#61A0FF"/>
<path d="M212.72 21.4859H247.499V19H212.72V21.4859Z" fill="#61A0FF"/>
<path d="M193.021 78.825H266.84V76.3391H193.021V78.825Z" fill="#61A0FF"/>
<path opacity="0.4" d="M212.745 21.4732H247.483L266.818 76.3669H193L212.745 21.4732Z" fill="white"/>
<path opacity="0.4" d="M221.348 21.4732H247.483L266.819 76.3669H213.032L221.348 21.4732Z" fill="white"/>
<path d="M405.114 18.6676C410.284 18.6676 414.474 14.4984 414.474 9.35547C414.474 4.21252 410.284 0.043396 405.114 0.043396C399.944 0.043396 395.753 4.21252 395.753 9.35547C395.753 14.4984 399.944 18.6676 405.114 18.6676Z" fill="#21252B"/>
<path d="M399.247 16.5828C401.342 18.2506 404.136 19.0382 407.024 18.4822C412.1 17.463 415.36 12.5058 414.289 7.5023C414.242 7.178 414.149 6.85369 414.009 6.52939C409.725 6.80736 402.18 9.91141 399.247 16.5828Z" fill="#61A0FF"/>
<path d="M503.33 155.199H343.828C340.894 155.199 338.519 152.836 338.519 149.917V57.6301H503.33C506.264 57.6301 508.639 59.9928 508.639 62.9116V149.917C508.639 152.836 506.264 155.199 503.33 155.199Z" fill="#CCCCCC"/>
<path d="M343.176 155.199H318.867C315.933 155.199 313.558 152.836 313.558 149.917V62.8653C313.558 59.9466 315.933 57.5839 318.867 57.5839H343.176C346.11 57.5839 348.485 59.9466 348.485 62.8653V149.917C348.485 152.836 346.11 155.199 343.176 155.199Z" fill="#AAAAAA"/>
<path d="M500.769 284.641H579.192V137.084C579.192 134.165 576.817 131.803 573.883 131.803H506.077C503.144 131.803 500.769 134.165 500.769 137.084V284.641Z" fill="#AAAAAA"/>
<path d="M561.682 284.641H596.61V137.084C596.61 134.165 594.235 131.803 591.301 131.803H566.991C564.057 131.803 561.682 134.165 561.682 137.084V284.641Z" fill="#CCCCCC"/>
<path d="M561.701 217.427V182.681H390.185V217.427H561.701Z" fill="#CCCCCC"/>
<path d="M563.219 245.679L545.988 252.582C525.73 222.19 515.997 213.619 502.585 182.672H409.398L417.362 152.234H510.502C516.649 152.234 522.191 155.94 524.519 161.592L563.219 245.679Z" fill="url(#paint0_linear)"/>
<path opacity="0.2" d="M545.941 252.582L551.204 250.08L509.291 161.592C506.962 155.94 501.421 152.234 495.273 152.234H417.362L409.398 182.672H490.104H502.538C515.997 213.619 526.196 222.792 545.941 252.582Z" fill="black"/>
<path opacity="0.2" d="M398.533 217.415V182.668H393.596V217.415H398.533Z" fill="black"/>
<path d="M561.403 222.514C561.263 222.514 561.124 222.422 561.124 222.283V160.063C561.124 159.924 561.263 159.832 561.403 159.832C561.543 159.832 561.682 159.924 561.682 160.063V222.283C561.682 222.422 561.543 222.514 561.403 222.514Z" fill="#AAAAAA"/>
<path d="M470.359 145.748L451.731 79.5436C450.24 73.7062 445.583 69.166 439.716 67.7298L428.865 65.1354L397.29 66.1546L380.618 70.0926C372.376 72.0384 366.973 80.0069 368.277 88.3461L375.077 131.803C375.17 132.498 380.432 141.207 387.278 147.971H471.849" fill="#61A0FF"/>
<path opacity="0.2" d="M446.002 140.884L446.05 140.837L446.144 140.93L446.002 140.884Z" fill="black"/>
<path d="M462.768 143.061C462.302 143.617 461.464 143.756 460.858 143.292L452.615 137.269L463.094 142.041C463.14 142.412 463 142.783 462.768 143.061Z" fill="#AAAAAA"/>
<path d="M525.87 245.679L508.406 252.582C486.332 221.82 478.415 213.619 464.956 182.672H371.816L379.78 152.234H472.92C479.067 152.234 484.609 155.94 486.937 161.592L525.87 245.679Z" fill="url(#paint1_linear)"/>
<path opacity="0.2" d="M508.406 252.582L512.783 250.312L477.67 173.591C475.341 167.939 469.799 164.233 463.652 164.233H376.659L371.863 182.672H465.003C478.415 213.619 486.332 221.82 508.406 252.582Z" fill="black"/>
<path d="M562.939 245.679L573.464 269.816C575.234 272.596 577.283 273.245 580.403 274.31L596.33 279.592C597.867 280.101 596.05 283.02 596.05 283.02C595.771 283.391 595.352 283.622 594.84 283.622C594.374 283.622 593.862 283.391 593.536 283.066C593.489 283.02 593.442 283.02 593.442 283.02H593.163C593.116 283.02 593.07 283.066 593.023 283.113C592.744 283.437 592.325 283.622 591.906 283.622C591.487 283.622 590.974 283.437 590.648 283.113C590.509 282.974 590.276 283.02 590.136 283.159C589.903 283.437 589.577 283.576 589.205 283.576C588.879 283.576 588.46 283.437 588.134 283.205C587.994 283.113 587.761 283.113 587.621 283.252C587.435 283.437 587.109 283.576 586.83 283.576C586.364 283.576 585.991 283.344 585.805 282.974H585.665L564.523 282.649H564.476C562.054 282.603 560.145 280.657 560.052 278.248L559.959 276.627C559.866 274.635 559.214 272.735 558.096 271.067L548.456 255.454L562.939 245.679Z" fill="#CCCCCC"/>
<path opacity="0.15" d="M596.842 280.796C596.423 280.796 595.911 280.611 595.585 280.287C595.445 280.148 595.212 280.194 595.072 280.333C594.84 280.611 594.514 280.75 594.141 280.75C593.815 280.75 593.396 280.611 593.07 280.379C592.93 280.287 592.697 280.287 592.558 280.426C592.371 280.611 592.045 280.75 591.766 280.75C591.3 280.75 590.928 280.518 590.741 280.148H590.602L580.17 279.962L579.891 274.079C579.891 274.079 577.655 277.507 574.489 279.916L569.459 279.777C567.41 279.731 565.64 278.943 564.755 277.368L554.231 258.605C553.718 257.724 553.998 256.613 554.836 256.01L564.569 249.293L548.456 255.454L557.91 270.789C559.167 272.596 559.866 274.727 559.959 276.951L560.005 278.248C560.099 280.657 562.054 282.603 564.43 282.649H564.476L585.619 282.974H585.758C585.945 283.344 586.364 283.576 586.783 283.576C587.109 283.576 587.388 283.437 587.575 283.252C587.714 283.113 587.901 283.113 588.087 283.205C588.413 283.437 588.786 283.576 589.158 283.576C589.531 283.576 589.857 283.391 590.089 283.159C590.229 283.02 590.462 282.974 590.602 283.113C590.974 283.391 591.44 283.622 591.859 283.622C592.325 283.622 592.697 283.437 592.977 283.113C593.023 283.066 593.07 283.02 593.117 283.02H593.396C593.442 283.02 593.489 283.066 593.489 283.066C593.862 283.391 594.327 283.622 594.793 283.622C595.305 283.622 595.724 283.391 596.004 283.02C596.05 283.02 597.261 280.796 596.842 280.796Z" fill="black"/>
<path d="M599.59 282.557C599.497 280.379 598.1 278.433 596.004 277.692L581.288 273.245C580.729 273.059 580.17 273.337 579.984 273.893C579.425 275.746 578.028 279.731 575.28 282.557H560.657C560.099 282.557 559.633 283.02 559.633 283.576C559.633 284.132 560.099 284.595 560.657 284.595H598.565C599.124 284.595 599.59 284.132 599.59 283.576V282.557Z" fill="#21252B"/>
<path opacity="0.4" d="M599.59 282.557C599.544 280.796 598.612 279.267 597.215 278.294C599.031 279.592 598.705 280.889 596.097 280.796C582.546 280.148 578.913 280.148 577.33 280.009C577.376 279.962 577.376 279.916 577.376 279.87C576.771 280.796 576.119 281.723 575.327 282.51H560.704C560.145 282.51 559.68 282.974 559.68 283.53C559.68 284.086 560.145 284.549 560.704 284.549H598.612C599.171 284.549 599.637 284.086 599.637 283.53V282.557H599.59Z" fill="black"/>
<path opacity="0.4" d="M599.59 281.769L575.606 282.232L575.28 282.557L599.59 282.093V281.769Z" fill="black"/>
<path d="M350.069 131.849H338.054C336.191 131.849 334.701 130.366 334.701 128.513V108.87H353.468V128.513C353.422 130.366 351.932 131.849 350.069 131.849Z" fill="#21252B"/>
<path d="M356.355 125.131H353.421V123.695H356.355C357.1 123.695 357.706 123.093 357.706 122.352V114.337C357.706 113.595 357.1 112.993 356.355 112.993H353.421V111.557H356.355C357.892 111.557 359.103 112.808 359.103 114.29V122.305C359.15 123.881 357.892 125.131 356.355 125.131Z" fill="#21252B"/>
<path opacity="0.6" d="M354.725 112.993V111.557H353.421V108.823H349.323V128.143C349.323 129.81 347.973 131.154 346.296 131.154H335.911C336.47 131.617 337.215 131.895 338.007 131.895H350.022C351.885 131.895 353.375 130.413 353.375 128.56V125.177H354.679V123.741H353.375V113.039H354.725V112.993Z" fill="black"/>
<path d="M341.081 107.434C340.941 107.434 340.848 107.341 340.848 107.202C340.848 105.441 339.404 103.959 337.588 103.959H336.005C334.607 103.959 333.49 102.847 333.49 101.457C333.49 100.067 334.607 98.9555 336.005 98.9555H344.946C346.064 98.9555 346.995 98.0289 346.995 96.917C346.995 95.8051 346.064 94.8785 344.946 94.8785H342.804C341.36 94.8785 340.242 93.7203 340.242 92.3305C340.242 92.1915 340.336 92.0988 340.475 92.0988C340.615 92.0988 340.708 92.1915 340.708 92.3305C340.708 93.4887 341.639 94.4153 342.804 94.4153H344.946C346.343 94.4153 347.461 95.5271 347.461 96.917C347.461 98.3069 346.343 99.4188 344.946 99.4188H336.005C334.887 99.4188 333.955 100.345 333.955 101.457C333.955 102.569 334.887 103.496 336.005 103.496H337.588C339.637 103.496 341.313 105.164 341.313 107.202C341.313 107.341 341.22 107.434 341.081 107.434Z" fill="white"/>
<path d="M346.25 108.87C346.11 108.87 346.017 108.777 346.017 108.638V108.082C346.017 107.665 345.691 107.341 345.272 107.341C344.573 107.341 344.061 106.785 344.061 106.136V105.163C344.061 104.469 344.62 103.959 345.272 103.959H346.762C348.765 103.959 350.441 102.337 350.441 100.299V98.4921C350.441 98.3531 350.534 98.2604 350.674 98.2604C350.814 98.2604 350.907 98.3531 350.907 98.4921V100.253C350.907 102.523 349.044 104.376 346.762 104.376H345.272C344.853 104.376 344.527 104.7 344.527 105.117V106.09C344.527 106.507 344.853 106.831 345.272 106.831C345.97 106.831 346.483 107.387 346.483 108.036V108.592C346.483 108.731 346.39 108.87 346.25 108.87Z" fill="white"/>
<path d="M525.404 245.679L535.929 269.816C537.699 272.596 539.748 273.245 542.868 274.31L558.795 279.592C560.332 280.101 558.515 283.02 558.515 283.02C558.236 283.391 557.817 283.622 557.304 283.622C556.839 283.622 556.327 283.391 556.001 283.066C555.954 283.02 555.907 283.02 555.907 283.02H555.628C555.581 283.02 555.535 283.066 555.488 283.113C555.209 283.437 554.79 283.622 554.371 283.622C553.951 283.622 553.439 283.437 553.113 283.113C552.973 282.974 552.741 283.02 552.601 283.159C552.368 283.437 552.042 283.576 551.67 283.576C551.344 283.576 550.924 283.437 550.598 283.205C550.459 283.113 550.226 283.113 550.086 283.252C549.9 283.437 549.574 283.576 549.294 283.576C548.829 283.576 548.456 283.344 548.27 282.974H548.13L526.987 282.649H526.941C524.519 282.603 522.61 280.657 522.517 278.248L522.424 276.627C522.331 274.635 521.679 272.735 520.561 271.067L510.921 255.547L525.404 245.679Z" fill="#CCCCCC"/>
<path opacity="0.15" d="M559.307 280.796C558.888 280.796 558.376 280.611 558.05 280.287C557.91 280.148 557.677 280.194 557.537 280.333C557.304 280.611 556.978 280.75 556.606 280.75C556.28 280.75 555.861 280.611 555.535 280.379C555.395 280.287 555.162 280.287 555.023 280.426C554.836 280.611 554.51 280.75 554.231 280.75C553.765 280.75 553.393 280.518 553.206 280.148H553.067L542.635 279.962L542.356 274.079C542.356 274.079 540.12 277.507 536.953 279.916L531.924 279.777C529.875 279.731 528.105 278.943 527.22 277.368L516.696 258.605C516.183 257.724 516.463 256.613 517.301 256.01L527.034 249.293L510.921 255.547L520.375 270.882C521.632 272.689 522.331 274.82 522.424 277.044L522.47 278.341C522.563 280.75 524.519 282.696 526.894 282.742H526.941L548.084 283.066H548.223C548.41 283.437 548.829 283.669 549.248 283.669C549.574 283.669 549.853 283.53 550.04 283.344C550.179 283.205 550.366 283.205 550.552 283.298C550.878 283.53 551.25 283.669 551.623 283.669C551.996 283.669 552.322 283.483 552.554 283.252C552.694 283.113 552.927 283.066 553.067 283.205C553.439 283.483 553.905 283.715 554.324 283.715C554.79 283.715 555.162 283.53 555.442 283.205C555.488 283.159 555.535 283.113 555.581 283.113H555.861C555.907 283.113 555.954 283.159 555.954 283.159C556.326 283.483 556.792 283.715 557.258 283.715C557.77 283.715 558.189 283.483 558.469 283.113C558.515 283.02 559.726 280.796 559.307 280.796Z" fill="black"/>
<path d="M562.055 282.557C561.962 280.379 560.564 278.433 558.469 277.692L543.753 273.245C543.194 273.059 542.635 273.337 542.449 273.893C541.89 275.746 540.493 279.731 537.745 282.557H523.122C522.563 282.557 522.098 283.02 522.098 283.576C522.098 284.132 522.563 284.595 523.122 284.595H561.03C561.589 284.595 562.055 284.132 562.055 283.576V282.557Z" fill="#21252B"/>
<path opacity="0.4" d="M562.055 282.557C562.008 280.796 561.077 279.267 559.68 278.294C561.496 279.592 559.307 280.889 556.699 280.796C543.148 280.148 541.378 280.148 539.795 280.009C539.841 279.962 539.841 279.916 539.841 279.87C539.236 280.796 538.584 281.723 537.792 282.51H523.169C522.61 282.51 522.145 282.974 522.145 283.53C522.145 284.086 522.61 284.549 523.169 284.549H561.077C561.636 284.549 562.102 284.086 562.102 283.53V282.557H562.055Z" fill="black"/>
<path opacity="0.4" d="M562.055 282.232H538.072L537.746 282.557H562.055V282.232Z" fill="black"/>
<path opacity="0.2" d="M419.783 148.018L415.546 166.271C414.009 172.804 409.212 178.224 402.739 180.216C400.969 180.772 399.06 181.05 397.15 181.05H374.657L378.29 152.743L419.783 148.018Z" fill="black"/>
<path d="M419.783 148.018L413.776 162.148C410.795 169.236 403.81 173.823 396.079 173.823H373.586L377.218 145.516L419.783 148.018Z" fill="#61A0FF"/>
<path opacity="0.4" d="M435.478 119.108C434.686 103.31 435.105 68.1931 435.198 66.7106L428.865 65.1817L429.75 117.209C429.75 117.209 436.316 135.231 435.478 119.108Z" fill="black"/>
<path d="M296.28 284.641H369.395C372.329 284.641 374.704 282.279 374.704 279.36V137.084C374.704 134.165 372.329 131.803 369.395 131.803H301.589C298.655 131.803 296.28 134.165 296.28 137.084V284.641Z" fill="#AAAAAA"/>
<path d="M368.091 132.405H315.747C315.607 132.405 315.514 132.266 315.514 132.08C315.514 131.895 315.607 131.756 315.747 131.756H368.138C368.277 131.756 368.371 131.895 368.371 132.08C368.371 132.266 368.231 132.405 368.091 132.405Z" fill="#CCCCCC"/>
<path opacity="0.15" d="M467.937 146.813L467.75 148.018H471.895L472.966 146.813H467.937Z" fill="black"/>
<path d="M406.698 48.179C406.372 58.186 408.886 63.9771 403.298 63.7918C394.356 63.4675 387.371 55.1283 387.697 45.1213C388.023 35.1142 395.567 27.2383 404.555 27.5626C406.232 36.2261 407.07 38.1719 406.698 48.179Z" fill="#21252B"/>
<path d="M426.96 64.6133C435.935 64.5225 443.139 57.3971 443.05 48.6984C442.961 39.9997 435.613 33.0216 426.638 33.1124C417.663 33.2033 410.459 40.3286 410.548 49.0273C410.637 57.726 417.984 64.7041 426.96 64.6133Z" fill="#21252B"/>
<path d="M406.837 41.3687L405.626 62.9579C405.58 63.7918 404.974 64.5331 404.136 64.7184L397.337 66.2009L405.626 80.2849L428.911 73.6135V65.1817L427.374 64.8111C426.536 64.6257 425.931 63.8845 425.884 63.0042L425.093 39.2375L406.837 41.3687Z" fill="#CCCCCC"/>
<path d="M419.784 57.3985L418.806 57.3522C411.867 57.1205 406.465 51.3294 406.698 44.4264L407.303 26.9141C407.396 24.5977 409.306 22.7908 411.634 22.8835L428.073 23.4395C431.1 23.5321 433.429 26.0339 433.336 29.0453L432.777 45.3067C432.544 52.256 426.723 57.6301 419.784 57.3985Z" fill="#CCCCCC"/>
<g opacity="0.3">
<path opacity="0.3" d="M423.183 52.0706H423.137C421.786 52.0706 421.088 52.0706 421.088 52.0706C420.855 52.0706 420.622 51.8853 420.622 51.6073C420.622 51.3757 420.808 51.144 421.088 51.144C421.088 51.144 421.786 51.144 423.137 51.144C423.37 51.144 423.603 51.3294 423.603 51.6073C423.556 51.839 423.416 52.0243 423.183 52.0706Z" fill="black"/>
</g>
<g opacity="0.3">
<path opacity="0.3" d="M423.23 50.1249C419.458 50.4029 417.921 48.2718 417.409 47.2062C417.315 46.9745 417.409 46.7429 417.595 46.6502C417.828 46.5576 418.061 46.6502 418.154 46.8356C418.666 47.8548 420.249 50.0323 424.627 49.0593C425.232 48.9667 425.372 49.708 424.86 49.8933C424.301 50.0323 423.742 50.1249 423.23 50.1249Z" fill="black"/>
</g>
<path d="M419.411 41.1834C420.157 41.1834 420.762 40.582 420.762 39.8398C420.762 39.0977 420.157 38.4963 419.411 38.4963C418.665 38.4963 418.061 39.0977 418.061 39.8398C418.061 40.582 418.665 41.1834 419.411 41.1834Z" fill="#21252B"/>
<path d="M419.923 40.7201C420.078 40.7201 420.203 40.5954 420.203 40.4421C420.203 40.2887 420.078 40.1641 419.923 40.1641C419.769 40.1641 419.644 40.2887 419.644 40.4421C419.644 40.5954 419.769 40.7201 419.923 40.7201Z" fill="white"/>
<path d="M429.89 42.1563C430.636 42.1563 431.24 41.555 431.24 40.8128C431.24 40.0706 430.636 39.4692 429.89 39.4692C429.144 39.4692 428.539 40.0706 428.539 40.8128C428.539 41.555 429.144 42.1563 429.89 42.1563Z" fill="#21252B"/>
<path d="M430.495 41.6467C430.649 41.6467 430.774 41.5221 430.774 41.3687C430.774 41.2154 430.649 41.0908 430.495 41.0908C430.341 41.0908 430.215 41.2154 430.215 41.3687C430.215 41.5221 430.341 41.6467 430.495 41.6467Z" fill="white"/>
<g opacity="0.3">
<path opacity="0.3" d="M424.953 46.5112H423.09C422.857 46.5112 422.671 46.3259 422.671 46.0943C422.671 45.8626 422.857 45.6773 423.09 45.6773H424.953C425.419 45.6773 425.791 45.3067 425.791 44.8434C425.791 44.3801 425.419 44.0095 424.953 44.0095C424.72 44.0095 424.534 43.8242 424.534 43.5925C424.534 43.3609 424.72 43.1756 424.953 43.1756C425.838 43.1756 426.583 43.9168 426.583 44.7971C426.583 45.77 425.884 46.5112 424.953 46.5112Z" fill="black"/>
</g>
<path d="M438.085 37.5697C436.176 36.0409 437.154 33.4465 437.154 33.4465C437.62 32.3809 437.946 31.1764 438.085 29.8792C438.504 25.7096 436.362 23.9491 435.198 23.3005C434.779 23.0688 434.546 22.6055 434.546 22.1422C434.686 9.07752 417.036 4.62995 407.07 11.6719C401.062 15.9342 399.339 21.0304 399.432 25.9875C399.432 25.9875 399.572 28.165 397.523 29.0916L399.898 30.2961C400.597 34.0024 401.901 37.3844 402.599 40.0252C402.878 41.137 405.3 36.7358 406.278 36.3189C406.418 36.2725 407.209 37.5697 407.722 38.4036C408.048 38.9133 408.839 38.9133 409.072 38.3573C409.911 36.2262 410.376 33.9561 410.469 31.6397L410.563 29.5549C415.173 29.2769 417.269 25.061 417.269 25.061C421.367 30.3888 428.958 30.4351 432.078 30.2035C432.823 30.1571 433.428 30.7131 433.382 31.4543L433.102 39.2839C433.102 39.2839 434.36 38.2183 435.617 36.4115L437.573 38.033L438.085 37.5697Z" fill="#21252B"/>
<path d="M407.582 45.214C407.582 45.214 401.575 45.7236 400.271 39.8398C398.967 33.9561 406.325 32.7978 407.396 38.7279L408.234 45.214H407.582Z" fill="#CCCCCC"/>
<path opacity="0.3" d="M402.087 36.6894C402.739 36.2261 403.344 36.0871 403.903 36.1798C404.462 36.2725 404.974 36.6894 405.347 37.338C405.766 37.9867 405.999 38.7742 406.045 39.6545L406.092 40.3031C406.139 40.7664 405.3 40.9054 405.3 40.3958C405.254 39.7008 405.254 39.7008 405.254 39.7008C405.254 39.5155 405.114 38.4036 404.695 37.8013C404.415 37.338 404.089 37.0601 403.763 37.0137C403.391 36.9211 403.018 37.0601 402.553 37.3844C402.366 37.5234 402.133 37.477 401.994 37.2917C401.901 37.0601 401.947 36.8284 402.087 36.6894Z" fill="black"/>
<path d="M431.426 35.346C429.703 35.346 428.167 36.1336 427.189 37.3844C425.745 36.7358 424.394 36.9675 423.836 37.1528C422.951 35.3923 421.088 34.1414 418.946 34.1414C415.919 34.1414 413.497 36.5968 413.497 39.5619C413.497 42.5733 415.965 44.9824 418.946 44.9824C421.926 44.9824 424.394 42.5269 424.394 39.5619C424.394 38.9133 424.301 38.3573 424.068 37.7551C424.581 37.6161 425.652 37.4771 426.769 37.9404C426.257 38.7743 425.978 39.7472 425.978 40.7664C425.978 43.7778 428.446 46.1869 431.426 46.1869C434.453 46.1869 436.875 43.7315 436.875 40.7664C436.875 37.7551 434.453 35.346 431.426 35.346ZM418.946 44.2874C416.338 44.2874 414.196 42.1563 414.196 39.5619C414.196 36.9675 416.338 34.8364 418.946 34.8364C421.554 34.8364 423.696 36.9675 423.696 39.5619C423.696 42.1563 421.554 44.2874 418.946 44.2874ZM431.426 45.492C428.819 45.492 426.676 43.3609 426.676 40.7664C426.676 38.172 428.819 36.0409 431.426 36.0409C434.034 36.0409 436.177 38.172 436.177 40.7664C436.177 43.3609 434.081 45.492 431.426 45.492Z" fill="white"/>
<path d="M405.952 44.3337C406.621 44.3337 407.163 43.7945 407.163 43.1292C407.163 42.4639 406.621 41.9247 405.952 41.9247C405.284 41.9247 404.742 42.4639 404.742 43.1292C404.742 43.7945 405.284 44.3337 405.952 44.3337Z" fill="#61A0FF"/>
<path opacity="0.15" d="M406.372 44.1484C405.673 44.1484 405.068 43.5925 405.068 42.8512C405.068 42.6195 405.161 42.3879 405.254 42.1562C404.928 42.3879 404.742 42.7122 404.742 43.1292C404.742 43.7778 405.254 44.3337 405.952 44.3337C406.185 44.3337 406.465 44.2411 406.651 44.1021C406.558 44.1484 406.465 44.1484 406.372 44.1484Z" fill="black"/>
<path d="M397.291 66.2009C397.291 66.2009 418.713 104.515 420.575 147.276L441.159 147.323L440.647 145.47C432.823 121.286 428.12 79.312 428.911 65.1817C427.934 72.409 414.754 77.8295 403.205 70.4632C401.622 69.4903 397.291 66.2009 397.291 66.2009Z" fill="white"/>
<path d="M416.244 76.2081C416.058 76.2081 415.872 76.2081 415.685 76.2081C408.979 76.0228 402.925 72.7797 400.923 70.6486C400.783 70.5096 400.783 70.278 400.923 70.139C401.062 70 401.295 70 401.435 70.139C403.391 72.2701 409.445 75.2815 415.685 75.4668C420.482 75.6058 424.58 74.0769 427.794 70.9729C427.933 70.8339 428.166 70.8339 428.306 70.9729C428.446 71.1119 428.446 71.3435 428.306 71.4825C425.092 74.6329 420.994 76.2081 416.244 76.2081Z" fill="#CCCCCC"/>
<path d="M404.695 132.637L430.029 138.52L443.767 138.984C445.211 139.076 445.909 139.493 446.934 140.651L453.64 147.276C454.106 147.832 454.245 148.481 453.733 148.991C453.174 149.5 452.755 149.222 452.196 148.713L444.093 142.041L448.61 148.805C449.123 149.593 449.262 150.473 448.378 150.658C447.865 150.797 447.353 150.612 447.027 150.195L440.787 142.366L445.537 148.342C446.096 149.037 445.77 150.103 444.885 150.334C444.466 150.427 444 150.334 443.721 150.01L436.875 143.524L441.532 147.925C442.091 148.435 441.951 149.315 441.299 149.686C440.973 149.871 440.554 149.871 440.228 149.686L433.708 145.933C433.056 145.562 432.311 145.516 431.612 145.748L428.818 146.72C426.536 147.508 424.208 147.137 421.786 146.813L400.178 144.728L404.695 132.637Z" fill="#CCCCCC"/>
<path opacity="0.15" d="M433.289 145.099C431.007 145.887 428.679 145.516 426.257 145.192L411.774 142.968L411.634 134.073L407.815 145.423L421.786 146.767C424.161 147.091 426.537 147.415 428.818 146.674L431.613 145.701C432.311 145.47 433.056 145.516 433.708 145.887L433.289 145.099Z" fill="black"/>
<path opacity="0.15" d="M441.439 148.157C441.392 148.157 441.346 148.11 441.299 148.11L437.015 144.08C436.922 143.987 436.922 143.848 437.015 143.755C437.108 143.663 437.248 143.663 437.341 143.755L441.625 147.786C441.718 147.879 441.718 148.018 441.625 148.11C441.579 148.11 441.532 148.157 441.439 148.157Z" fill="black"/>
<path opacity="0.15" d="M445.49 148.574C445.444 148.574 445.397 148.527 445.351 148.481L440.88 142.875C440.787 142.783 440.833 142.644 440.926 142.551C441.02 142.458 441.159 142.505 441.252 142.597L445.723 148.203C445.816 148.296 445.77 148.435 445.677 148.527C445.63 148.527 445.583 148.574 445.49 148.574Z" fill="black"/>
<path opacity="0.15" d="M435.291 145.331C436.735 146.303 439.249 147.971 440.088 148.574C441.299 149.454 441.764 148.574 441.811 148.527C441.857 148.944 441.671 149.408 441.252 149.639C440.926 149.824 440.507 149.824 440.181 149.639L433.661 145.887C433.009 145.516 432.264 145.47 431.565 145.701L433.009 145.099C433.754 144.821 434.592 144.914 435.291 145.331Z" fill="black"/>
<path d="M411.634 134.073L394.31 129.903L375.03 131.293C376.008 137.408 378.755 142.597 384.856 143.385L407.768 145.423L411.634 134.073Z" fill="#61A0FF"/>
<path opacity="0.15" d="M387.976 140.374C382.947 139.725 380.571 135.463 379.081 131.015L372.282 87.5586C371.118 80.007 375.588 72.5017 382.574 69.722L380.711 70.1853C372.468 72.1311 367.066 80.0996 368.37 88.4388L375.169 131.895C375.169 131.895 375.169 131.895 375.169 131.942C376.24 137.779 378.988 142.69 384.902 143.431L407.815 145.47L408.886 142.273L387.976 140.374Z" fill="black"/>
<path d="M358.684 284.641H393.612V137.084C393.612 134.165 391.236 131.803 388.303 131.803H363.993C361.059 131.803 358.684 134.165 358.684 137.084V284.641Z" fill="#CCCCCC"/>
<path opacity="0.15" d="M418.387 135.138L400.55 130.598L388.628 87.2806C388.489 86.8636 387.837 87.0026 387.883 87.4196L394.263 129.949L418.293 135.833C418.48 135.88 418.666 135.741 418.666 135.509C418.713 135.324 418.619 135.138 418.387 135.138Z" fill="black"/>
<path d="M413.45 149.732H459.368C459.741 149.732 460.067 150.056 460.067 150.427V151.585C460.067 151.956 459.741 152.28 459.368 152.28H413.45C413.077 152.28 412.751 151.956 412.751 151.585V150.427C412.798 150.056 413.077 149.732 413.45 149.732Z" fill="#21252B"/>
<path opacity="0.6" d="M413.45 149.732H459.368C459.741 149.732 460.067 150.056 460.067 150.427V151.585C460.067 151.956 459.741 152.28 459.368 152.28H413.45C413.077 152.28 412.751 151.956 412.751 151.585V150.427C412.798 150.056 413.077 149.732 413.45 149.732Z" fill="black"/>
<path d="M444.466 149.732H524.519C524.892 149.732 525.218 150.056 525.218 150.427V151.585C525.218 151.956 524.892 152.28 524.519 152.28H444.466C444.093 152.28 443.767 151.956 443.767 151.585V150.427C443.767 150.056 444.093 149.732 444.466 149.732Z" fill="#21252B"/>
<path opacity="0.2" d="M445.257 82.8794L448.657 93.6277C450.054 98.0752 449.542 102.476 447.073 106.831L444.885 110.445C444.419 111.186 444.279 112.02 444.419 112.9L449.402 144.126L457.924 128.421L457.878 119.896L446.049 82.7404C445.909 82.2771 445.164 82.4161 445.257 82.8794Z" fill="black"/>
<g opacity="0.6">
<path opacity="0.6" d="M523.448 150.195H441.997C441.858 150.195 441.765 150.102 441.765 149.963C441.765 149.824 441.858 149.732 441.997 149.732H523.495C523.634 149.732 523.728 149.824 523.728 149.963C523.728 150.102 523.588 150.195 523.448 150.195Z" fill="black"/>
</g>
<path d="M444.279 149.732H456.341C457.272 149.732 458.064 149.083 458.25 148.157L468.356 95.2955C468.589 94.0909 467.657 93.0254 466.447 93.0254H454.385C453.453 93.0254 452.662 93.674 452.476 94.6006L442.37 147.462C442.137 148.62 443.068 149.732 444.279 149.732Z" fill="#21252B"/>
<path opacity="0.6" d="M444.279 149.732H456.341C457.272 149.732 458.064 149.083 458.25 148.157L468.356 95.2955C468.589 94.0909 467.657 93.0254 466.447 93.0254H454.385C453.453 93.0254 452.662 93.674 452.476 94.6006L442.37 147.462C442.137 148.62 443.068 149.732 444.279 149.732Z" fill="black"/>
<path d="M446.003 149.732H523.449C524.38 149.732 525.172 149.083 525.358 148.157L535.464 95.2955C535.696 94.0909 534.765 93.0254 533.554 93.0254H456.109C455.177 93.0254 454.385 93.674 454.199 94.6006L444.093 147.462C443.861 148.62 444.792 149.732 446.003 149.732Z" fill="#21252B"/>
<path opacity="0.6" d="M490.244 119.896C489.778 120.962 490.29 121.888 491.362 121.888C491.408 121.888 491.501 121.888 491.548 121.888C490.29 123.278 488.381 124.251 486.705 124.205C484.423 124.158 483.351 122.305 484.376 120.035C485.354 117.765 488.055 116.004 490.337 116.051C491.781 116.097 492.759 116.838 492.991 117.996C491.874 117.996 490.71 118.83 490.244 119.896Z" fill="black"/>
<path d="M507.475 251.516L510.641 255.918L527.546 249.478L524.892 243.501L507.475 251.516Z" fill="#61A0FF"/>
<path d="M545.196 251.424L548.177 255.918L565.128 249.478L562.427 243.501L545.196 251.424Z" fill="#61A0FF"/>
<path d="M430.448 32.3346C430.448 32.3346 430.402 32.3346 430.448 32.3346C425.139 32.1029 421.646 30.1571 419.644 28.5819C417.455 26.8678 416.57 25.1999 416.524 25.1536C416.43 24.9683 416.477 24.783 416.663 24.6903C416.85 24.5977 417.036 24.644 417.129 24.8293C417.176 24.8756 420.715 31.2227 430.448 31.6397C430.634 31.6397 430.774 31.825 430.774 32.0103C430.774 32.1956 430.634 32.3346 430.448 32.3346Z" fill="#21252B"/>
<path opacity="0.15" d="M406.698 45.214H408.374L406.372 49.1983L406.698 45.214Z" fill="black"/>
<path opacity="0.15" d="M425.652 56.194C423.742 57.1206 421.6 57.4912 419.365 57.3985C418.899 57.3985 418.387 57.3522 417.921 57.3059C417.735 57.2595 417.548 57.2596 417.362 57.2132C417.315 57.2132 417.269 57.2132 417.222 57.2132C416.943 57.1669 416.664 57.1206 416.384 57.0279C416.291 56.9816 416.151 56.9816 416.058 56.9352C414.195 56.4256 412.845 55.6844 411.96 55.0821C411.82 54.9894 411.587 54.9894 411.494 55.1748C411.401 55.3137 411.401 55.5454 411.587 55.6381C412.705 56.4256 414.475 57.3522 416.943 57.8155C418.154 58.8811 420.296 60.2709 423.09 60.4099C424.022 60.4562 424.906 60.4562 425.791 60.3172L425.652 56.194Z" fill="black"/>
<path opacity="0.4" d="M389.001 68.1467C392.075 72.27 406.698 94.6932 418.061 125.78C412.472 93.7666 397.29 66.2009 397.29 66.2009L389.001 68.1467Z" fill="black"/>
<defs>
<linearGradient id="paint0_linear" x1="486.309" y1="152.234" x2="486.309" y2="252.582" gradientUnits="userSpaceOnUse">
<stop stop-color="#94BFFF"/>
<stop offset="1" stop-color="#61A0FF"/>
</linearGradient>
<linearGradient id="paint1_linear" x1="448.843" y1="152.234" x2="448.843" y2="252.582" gradientUnits="userSpaceOnUse">
<stop stop-color="#94BFFF"/>
<stop offset="1" stop-color="#61A0FF"/>
</linearGradient>
</defs>
</svg>
