<svg width="640" height="632" viewBox="0 0 640 632" fill="none" xmlns="http://www.w3.org/2000/svg">
<g clip-path="url(#clip0)">
<path d="M-212.899 338.215L-139.559 632H661.769L695.655 389.086C696.371 383.839 695.973 378.446 694.462 373.344L623.986 139.832C619.372 124.527 605.293 113.158 588.191 110.826L92.1485 31.4352C76.6374 29.3217 61.1263 35.0064 51.4219 46.303L-204.626 304.471C-212.819 314.019 -215.842 326.409 -212.899 338.215Z" fill="#FAFAFA"/>
<path d="M690.594 633H-45.6617C-45.8647 633 -46 632.4 -46 631.5C-46 630.6 -45.8647 630 -45.6617 630H690.662C690.865 630 691 630.6 691 631.5C691 632.4 690.797 633 690.594 633Z" fill="#CCCCCC"/>
<path d="M641.466 537.742L610.425 571.247L610.627 509.619H609.816L609.748 539.491L583.508 512.916L582.967 513.454L609.748 540.635L609.545 596.477H610.357L610.425 572.391L642.008 538.28L641.466 537.742Z" fill="#21252B"/>
<path d="M586.551 571.18L586.01 571.718L599.672 584.501L601.836 596.544L602.58 596.409L593.991 548.237L593.179 548.372L599.469 583.223L586.551 571.18Z" fill="#21252B"/>
<path d="M596.628 631.193H615.903C619.487 631.193 622.463 628.3 622.463 624.667V599.302H590.068V624.667C590.068 628.232 592.976 631.193 596.628 631.193Z" fill="#AAAAAA"/>
<path d="M610.222 509.686C621.353 509.686 630.375 500.71 630.375 489.637C630.375 478.564 621.353 469.588 610.222 469.588C599.09 469.588 590.068 478.564 590.068 489.637C590.068 500.71 599.09 509.686 610.222 509.686Z" fill="#61A0FF"/>
<path d="M592.165 550.256C600.118 550.256 606.57 543.84 606.57 535.925C606.57 528.011 600.118 521.595 592.165 521.595C584.211 521.595 577.76 528.011 577.76 535.925C577.76 543.84 584.211 550.256 592.165 550.256Z" fill="#61A0FF"/>
<g opacity="0.3">
<path opacity="0.3" d="M592.165 550.256C600.118 550.256 606.57 543.84 606.57 535.925C606.57 528.011 600.118 521.595 592.165 521.595C584.211 521.595 577.76 528.011 577.76 535.925C577.76 543.84 584.211 550.256 592.165 550.256Z" fill="white"/>
</g>
<g opacity="0.3">
<path opacity="0.3" d="M610.222 509.686C621.353 509.686 630.375 500.71 630.375 489.637C630.375 478.564 621.353 469.588 610.222 469.588C599.09 469.588 590.068 478.564 590.068 489.637C590.068 500.71 599.09 509.686 610.222 509.686Z" fill="white"/>
</g>
<path d="M579.315 517.827C584.056 517.827 587.904 514.001 587.904 509.282C587.904 504.564 584.056 500.738 579.315 500.738C574.574 500.738 570.726 504.564 570.726 509.282C570.726 514.001 574.574 517.827 579.315 517.827Z" fill="#61A0FF"/>
<path d="M579.112 574.947C584.752 574.947 589.324 570.398 589.324 564.788C589.324 559.177 584.752 554.629 579.112 554.629C573.472 554.629 568.9 559.177 568.9 564.788C568.9 570.398 573.472 574.947 579.112 574.947Z" fill="#61A0FF"/>
<path d="M633.757 559.742C640.966 559.742 646.809 553.928 646.809 546.757C646.809 539.586 640.966 533.772 633.757 533.772C626.547 533.772 620.704 539.586 620.704 546.757C620.704 553.928 626.547 559.742 633.757 559.742Z" fill="#61A0FF"/>
<path d="M623.139 595.871H589.392C588.445 595.871 587.701 596.611 587.701 597.553C587.701 598.495 588.445 599.235 589.392 599.235H623.139C624.086 599.235 624.83 598.495 624.83 597.553C624.83 596.611 624.086 595.871 623.139 595.871Z" fill="#AAAAAA"/>
<path d="M590.068 489.637C590.068 478.536 599.131 469.588 610.222 469.588V509.753C599.063 509.686 590.068 500.738 590.068 489.637Z" fill="#61A0FF"/>
<path d="M594.261 550.121C586.484 551.265 579.247 546.017 577.895 538.28C576.61 530.677 581.615 523.411 589.189 521.864L594.261 550.121Z" fill="#61A0FF"/>
<path opacity="0.3" d="M573.228 515.338C569.847 512.041 569.779 506.591 573.161 503.227C573.161 503.227 573.228 503.16 573.296 503.16L585.334 515.405C582.02 518.634 576.61 518.634 573.228 515.338Z" fill="black"/>
<path opacity="0.3" d="M586.348 571.92C582.358 575.956 575.866 575.956 571.876 571.987C567.886 568.085 567.818 561.693 571.673 557.724L586.551 571.651C586.551 571.785 586.484 571.852 586.348 571.92Z" fill="black"/>
<path d="M622.395 599.302H592.909C591.962 599.302 591.218 598.562 591.218 597.62C591.218 596.679 591.962 595.938 592.909 595.938H589.324C588.377 595.938 587.634 596.679 587.634 597.62C587.634 598.562 588.377 599.302 589.324 599.302H590.001V599.841V624.667C590.001 628.232 592.909 631.193 596.561 631.193H606.84C606.976 631.193 607.043 631.193 607.043 631.193C602.444 631.193 598.522 627.963 597.643 623.523L592.976 599.841H622.327V599.302H622.395Z" fill="#929191"/>
<path opacity="0.3" d="M642.616 537.203C642.549 537.136 642.481 537.136 642.481 537.069L624.897 556.244L624.965 556.311C630.24 561.155 638.558 560.819 643.428 555.571C648.229 550.256 647.891 542.048 642.616 537.203Z" fill="black"/>
<path d="M465.968 188.494V383.874L691.107 380.51L637.815 188.494H465.968Z" fill="#EAEAEA"/>
<path opacity="0.2" d="M521.492 192.733L595.073 379.635H618.27L543.404 192.733H521.492Z" fill="white"/>
<path opacity="0.2" d="M553.819 192.733L627.467 379.635H635.177L560.311 192.733H553.819Z" fill="white"/>
<path d="M690.836 379.635H583.846V192.733H638.964L636.597 184.256H461.64V388.112H693.135L690.836 379.635ZM470.229 192.733H575.325V379.635H470.229V192.733Z" fill="white"/>
<path d="M640.452 198.182H470.229V195.088H639.641L640.452 198.182Z" fill="white"/>
<path d="M642.008 203.632H470.229V200.537H641.128L642.008 203.632Z" fill="white"/>
<path d="M643.495 209.082H470.229V205.987H642.616L643.495 209.082Z" fill="white"/>
<path d="M645.051 214.531H470.229V211.437H644.172L645.051 214.531Z" fill="white"/>
<path d="M646.539 219.981H470.229V216.886H645.66L646.539 219.981Z" fill="white"/>
<path d="M648.027 225.431H470.229V222.268H647.147L648.027 225.431Z" fill="white"/>
<path d="M474.219 279.591H474.084V192.8H473.34V279.591H473.204C472.596 279.591 472.055 280.062 472.055 280.734V292.845C472.055 293.45 472.528 293.988 473.204 293.988H474.219C474.828 293.988 475.369 293.517 475.369 292.845V280.734C475.369 280.062 474.895 279.591 474.219 279.591Z" fill="white"/>
<path opacity="0.2" d="M471.919 195.088H470.229V198.182H471.919V195.088Z" fill="black"/>
<path opacity="0.2" d="M471.919 200.537H470.229V203.632H471.919V200.537Z" fill="black"/>
<path opacity="0.2" d="M471.919 205.987H470.229V209.082H471.919V205.987Z" fill="black"/>
<path opacity="0.2" d="M471.919 211.437H470.229V214.531H471.919V211.437Z" fill="black"/>
<path opacity="0.2" d="M471.919 216.819H470.229V219.914H471.919V216.819Z" fill="black"/>
<path opacity="0.2" d="M471.919 222.268H470.229V225.363H471.919V222.268Z" fill="black"/>
<path opacity="0.2" d="M583.846 198.183H575.325V199.528H583.846V198.183Z" fill="black"/>
<path opacity="0.2" d="M583.846 203.632H575.325V204.978H583.846V203.632Z" fill="black"/>
<path opacity="0.2" d="M583.846 209.082H575.325V210.427H583.846V209.082Z" fill="black"/>
<path opacity="0.2" d="M583.846 214.531H575.325V215.877H583.846V214.531Z" fill="black"/>
<path opacity="0.2" d="M583.846 219.981H575.325V221.327H583.846V219.981Z" fill="black"/>
<path opacity="0.2" d="M583.846 225.431H575.325V226.776H583.846V225.431Z" fill="black"/>
<path opacity="0.4" d="M34.1538 298.361H25.8353V330.79V626.887H28.2024V301.658H34.1538V298.361Z" fill="black"/>
<path d="M13.3915 298.362H46.5299C49.5733 298.362 52.0756 295.872 52.0756 292.845V275.688H7.91351V292.845C7.91351 295.872 10.3482 298.362 13.3915 298.362Z" fill="#AAAAAA"/>
<path d="M25.8035 626.846H34.122V298.32H25.8035V626.846Z" fill="#AAAAAA"/>
<path d="M34.1538 298.361H25.8353V619.217H28.1348V301.456H34.1538V298.361Z" fill="#21252B"/>
<path d="M13.4591 292.845V288.471H7.91351V292.845C7.91351 295.872 10.4158 298.362 13.4591 298.362H19.0048C15.8938 298.362 13.4591 295.872 13.4591 292.845Z" fill="#21252B"/>
<path d="M-14.5394 630.856C-16.0949 630.856 -16.6359 628.703 -15.2157 628.031C-2.09561 621.706 13.3915 618.006 29.9607 618.006C46.53 618.006 62.0171 621.639 75.1372 628.031C76.5574 628.703 76.084 630.856 74.4609 630.856H-14.5394Z" fill="#AAAAAA"/>
<path d="M35.1006 618.141C33.4098 618.073 31.7191 618.006 30.0284 618.006C13.4591 618.006 -2.028 621.639 -15.1481 628.031C-16.5683 628.703 -16.0949 630.856 -14.4718 630.856H0.609543C4.59968 625.474 19.3429 619.15 35.1006 618.141Z" fill="#21252B"/>
<path d="M65.0604 403.587C64.8575 403.587 64.7223 403.452 64.7223 403.25V288.875C64.7223 288.673 64.8575 288.539 65.0604 288.539C65.2633 288.539 65.3986 288.673 65.3986 288.875V403.25C65.3986 403.452 65.1957 403.587 65.0604 403.587Z" fill="#21252B"/>
<path d="M1.62397 196.164H58.9738L90.8949 286.789H-30.9734L1.62397 196.164Z" fill="#61A0FF"/>
<path d="M1.62397 196.164H19.7487L7.23721 286.789H-30.9734L1.62397 196.164Z" fill="#61A0FF"/>
<path d="M1.58276 196.185H59.0002V192.081H1.58276V196.185Z" fill="#61A0FF"/>
<path d="M-30.9376 290.848H90.9307V286.744H-30.9376V290.848Z" fill="#61A0FF"/>
<path opacity="0.4" d="M1.62397 196.164H58.9738L90.8949 286.789H-30.9734L1.62397 196.164Z" fill="white"/>
<path opacity="0.4" d="M15.8262 196.164H58.9738L90.8949 286.789H2.09741L15.8262 196.164Z" fill="white"/>
<path d="M195.272 124.478C195.272 108.802 183.37 95.884 168.018 94.202V94.0001H164.636C147.729 94.0001 134 107.658 134 124.478C134 141.298 147.729 154.955 164.636 154.955H168.018V154.753C183.37 153.071 195.272 140.154 195.272 124.478Z" fill="#CCCCCC"/>
<path d="M168.018 154.955C184.937 154.955 198.654 141.31 198.654 124.478C198.654 107.646 184.937 94.0001 168.018 94.0001C151.097 94.0001 137.381 107.646 137.381 124.478C137.381 141.31 151.097 154.955 168.018 154.955Z" fill="#AAAAAA"/>
<path d="M168.018 151.591C183.07 151.591 195.272 139.452 195.272 124.478C195.272 109.503 183.07 97.3641 168.018 97.3641C152.965 97.3641 140.763 109.503 140.763 124.478C140.763 139.452 152.965 151.591 168.018 151.591Z" fill="white"/>
<path d="M168.018 151.591C183.07 151.591 195.272 139.452 195.272 124.478C195.272 109.503 183.07 97.3641 168.018 97.3641C152.965 97.3641 140.763 109.503 140.763 124.478C140.763 139.452 152.965 151.591 168.018 151.591Z" fill="#AAAAAA"/>
<path opacity="0.9" d="M168.018 151.591C183.07 151.591 195.272 139.452 195.272 124.478C195.272 109.503 183.07 97.3641 168.018 97.3641C152.965 97.3641 140.763 109.503 140.763 124.478C140.763 139.452 152.965 151.591 168.018 151.591Z" fill="white"/>
<path d="M168.018 97.3641C167.544 97.3641 167.071 97.3641 166.53 97.4314C180.867 98.1714 192.297 110.013 192.297 124.478C192.297 138.943 180.867 150.784 166.53 151.524C167.003 151.524 167.477 151.591 168.018 151.591C183.099 151.591 195.272 139.481 195.272 124.478C195.272 109.474 183.099 97.3641 168.018 97.3641Z" fill="#CCCCCC"/>
<path d="M168.288 126.563L159.226 108.667C158.888 107.994 159.158 107.12 159.834 106.783C160.511 106.447 161.39 106.716 161.728 107.389L169.505 122.796L179.853 117.75C180.529 117.413 181.408 117.683 181.746 118.423C182.085 119.095 181.814 119.97 181.07 120.306L168.288 126.563Z" fill="#61A0FF"/>
<path opacity="0.5" d="M191.349 138.404C193.851 134.3 195.272 129.524 195.272 124.41C195.272 109.407 183.098 97.2968 168.017 97.2968C167.273 97.2968 166.529 97.364 165.785 97.364L191.349 138.404Z" fill="white"/>
<path opacity="0.5" d="M161.66 98.1042C160.308 98.4406 159.023 98.8443 157.806 99.3152L186.007 144.796C187.089 143.854 188.103 142.778 189.05 141.635L161.66 98.1042Z" fill="white"/>
<path d="M248.675 244.942C256.182 244.942 262.268 238.887 262.268 231.419C262.268 223.95 256.182 217.895 248.675 217.895C241.167 217.895 235.081 223.95 235.081 231.419C235.081 238.887 241.167 244.942 248.675 244.942Z" fill="#21252B"/>
<path d="M240.153 241.914C243.197 244.336 247.254 245.48 251.447 244.673C258.819 243.192 263.553 235.994 261.997 228.727C261.93 228.256 261.795 227.785 261.592 227.314C255.37 227.718 244.414 232.226 240.153 241.914Z" fill="#61A0FF"/>
<path d="M391.305 443.214H159.674C155.413 443.214 151.964 439.783 151.964 435.544V301.524H391.305C395.566 301.524 399.015 304.955 399.015 309.193V435.544C399.015 439.783 395.566 443.214 391.305 443.214Z" fill="#CCCCCC"/>
<path d="M158.727 443.214H123.425C119.164 443.214 115.715 439.783 115.715 435.544V309.126C115.715 304.888 119.164 301.456 123.425 301.456H158.727C162.988 301.456 166.437 304.888 166.437 309.126V435.544C166.437 439.783 162.988 443.214 158.727 443.214Z" fill="#AAAAAA"/>
<path d="M387.586 631.193H501.473V416.908C501.473 412.669 498.024 409.238 493.764 409.238H395.295C391.035 409.238 387.586 412.669 387.586 416.908V631.193Z" fill="#AAAAAA"/>
<path d="M476.045 631.193H526.767V416.908C526.767 412.669 523.318 409.238 519.057 409.238H483.755C479.494 409.238 476.045 412.669 476.045 416.908V631.193Z" fill="#CCCCCC"/>
<path d="M476.072 533.583V483.124H226.994V533.583H476.072Z" fill="#CCCCCC"/>
<path d="M478.277 574.611L453.254 584.635C423.835 540.5 409.7 528.053 390.223 483.111H254.896L266.461 438.908H401.72C410.647 438.908 418.695 444.291 422.076 452.499L478.277 574.611Z" fill="url(#paint0_linear)"/>
<path opacity="0.2" d="M453.186 584.635L460.828 581.002L399.962 452.499C396.58 444.291 388.532 438.908 379.605 438.908H266.461L254.896 483.111H372.098H390.155C409.7 528.053 424.511 541.375 453.186 584.635Z" fill="black"/>
<path opacity="0.2" d="M239.117 533.565V483.105H231.948V533.565H239.117Z" fill="black"/>
<path d="M475.639 540.971C475.436 540.971 475.233 540.836 475.233 540.635V450.278C475.233 450.077 475.436 449.942 475.639 449.942C475.842 449.942 476.045 450.077 476.045 450.278V540.635C476.045 540.836 475.842 540.971 475.639 540.971Z" fill="#AAAAAA"/>
<path d="M343.423 429.489L316.372 333.347C314.207 324.87 307.444 318.276 298.923 316.191L283.165 312.423L237.313 313.903L213.101 319.622C201.131 322.448 193.286 334.02 195.179 346.13L205.053 409.238C205.189 410.247 212.831 422.896 222.772 432.718H345.587" fill="#61A0FF"/>
<path opacity="0.2" d="M308.053 422.425L308.121 422.357L308.257 422.493L308.053 422.425Z" fill="black"/>
<path d="M332.4 425.587C331.723 426.394 330.506 426.596 329.627 425.923L317.656 417.177L332.873 424.107C332.941 424.645 332.738 425.183 332.4 425.587Z" fill="#AAAAAA"/>
<path d="M424.038 574.611L398.677 584.635C366.62 539.962 355.123 528.053 335.578 483.111H200.319L211.884 438.908H347.143C356.07 438.908 364.118 444.291 367.499 452.499L424.038 574.611Z" fill="url(#paint1_linear)"/>
<path opacity="0.2" d="M398.677 584.635L405.034 581.339L354.041 469.924C350.66 461.716 342.612 456.334 333.685 456.334H207.353L200.387 483.111H335.646C355.123 528.053 366.62 539.962 398.677 584.635Z" fill="black"/>
<path d="M477.871 574.611L493.155 609.663C495.725 613.7 498.701 614.642 503.232 616.19L526.361 623.859C528.593 624.6 525.955 628.838 525.955 628.838C525.549 629.376 524.941 629.713 524.197 629.713C523.52 629.713 522.777 629.376 522.303 628.905C522.236 628.838 522.168 628.838 522.168 628.838H521.762C521.694 628.838 521.627 628.905 521.559 628.973C521.154 629.444 520.545 629.713 519.936 629.713C519.327 629.713 518.584 629.444 518.11 628.973C517.907 628.771 517.569 628.838 517.366 629.04C517.028 629.444 516.555 629.645 516.014 629.645C515.54 629.645 514.932 629.444 514.458 629.107C514.255 628.973 513.917 628.973 513.714 629.175C513.444 629.444 512.97 629.645 512.565 629.645C511.888 629.645 511.347 629.309 511.077 628.771H510.874L480.17 628.3H480.103C476.586 628.233 473.813 625.407 473.678 621.908L473.542 619.554C473.407 616.661 472.46 613.902 470.837 611.48L456.838 588.807L477.871 574.611Z" fill="#CCCCCC"/>
<path opacity="0.15" d="M527.105 625.609C526.496 625.609 525.752 625.34 525.279 624.869C525.076 624.667 524.738 624.734 524.535 624.936C524.197 625.34 523.723 625.541 523.182 625.541C522.709 625.541 522.1 625.34 521.627 625.003C521.424 624.869 521.086 624.869 520.883 625.07C520.613 625.34 520.139 625.541 519.733 625.541C519.057 625.541 518.516 625.205 518.245 624.667H518.043L502.894 624.398L502.488 615.853C502.488 615.853 499.242 620.832 494.643 624.33L487.339 624.128C484.363 624.061 481.793 622.917 480.508 620.63L465.224 593.382C464.48 592.103 464.886 590.489 466.103 589.614L480.238 579.859L456.838 588.807L470.567 611.076C472.393 613.7 473.407 616.795 473.543 620.024L473.61 621.908C473.745 625.407 476.586 628.233 480.035 628.3H480.103L510.806 628.771H511.009C511.28 629.309 511.888 629.645 512.497 629.645C512.97 629.645 513.376 629.444 513.647 629.174C513.85 628.973 514.12 628.973 514.391 629.107C514.864 629.444 515.405 629.645 515.946 629.645C516.487 629.645 516.961 629.376 517.299 629.04C517.502 628.838 517.84 628.771 518.043 628.973C518.584 629.376 519.26 629.713 519.869 629.713C520.545 629.713 521.086 629.444 521.492 628.973C521.559 628.905 521.627 628.838 521.695 628.838H522.1C522.168 628.838 522.236 628.905 522.236 628.905C522.777 629.376 523.453 629.713 524.129 629.713C524.873 629.713 525.482 629.376 525.888 628.838C525.955 628.838 527.714 625.609 527.105 625.609Z" fill="black"/>
<path d="M531.095 628.165C530.96 625.003 528.931 622.177 525.888 621.101L504.517 614.642C503.705 614.373 502.894 614.777 502.623 615.584C501.812 618.275 499.783 624.061 495.793 628.165H474.557C473.745 628.165 473.069 628.838 473.069 629.645C473.069 630.453 473.745 631.125 474.557 631.125H529.607C530.419 631.125 531.095 630.453 531.095 629.645V628.165Z" fill="#21252B"/>
<path opacity="0.4" d="M531.095 628.165C531.028 625.609 529.675 623.388 527.646 621.975C530.284 623.859 529.81 625.743 526.023 625.609C506.343 624.667 501.068 624.667 498.768 624.465C498.836 624.398 498.836 624.33 498.836 624.263C497.957 625.609 497.01 626.954 495.86 628.098H474.625C473.813 628.098 473.137 628.771 473.137 629.578C473.137 630.386 473.813 631.058 474.625 631.058H529.675C530.487 631.058 531.163 630.386 531.163 629.578V628.165H531.095Z" fill="black"/>
<path opacity="0.4" d="M531.095 627.021L496.266 627.694L495.792 628.165L531.095 627.492V627.021Z" fill="black"/>
<path d="M168.736 409.305H151.288C148.583 409.305 146.419 407.152 146.419 404.461V375.935H173.673V404.461C173.606 407.152 171.442 409.305 168.736 409.305Z" fill="#21252B"/>
<path d="M177.866 399.55H173.606V397.464H177.866C178.948 397.464 179.828 396.59 179.828 395.513V383.874C179.828 382.797 178.948 381.923 177.866 381.923H173.606V379.837H177.866C180.098 379.837 181.857 381.654 181.857 383.807V395.446C181.924 397.733 180.098 399.55 177.866 399.55Z" fill="#21252B"/>
<path opacity="0.6" d="M175.499 381.922V379.837H173.606V375.867H167.654V403.923C167.654 406.345 165.693 408.296 163.258 408.296H148.177C148.989 408.969 150.071 409.372 151.22 409.372H168.669C171.374 409.372 173.538 407.22 173.538 404.528V399.617H175.432V397.531H173.538V381.99H175.499V381.922Z" fill="black"/>
<path d="M155.684 373.849C155.481 373.849 155.346 373.714 155.346 373.513C155.346 370.956 153.249 368.803 150.612 368.803H148.312C146.284 368.803 144.66 367.188 144.66 365.17C144.66 363.152 146.284 361.537 148.312 361.537H161.297C162.92 361.537 164.273 360.191 164.273 358.577C164.273 356.962 162.92 355.616 161.297 355.616H158.186C156.09 355.616 154.467 353.934 154.467 351.916C154.467 351.714 154.602 351.58 154.805 351.58C155.008 351.58 155.143 351.714 155.143 351.916C155.143 353.598 156.496 354.944 158.186 354.944H161.297C163.326 354.944 164.949 356.558 164.949 358.577C164.949 360.595 163.326 362.21 161.297 362.21H148.312C146.689 362.21 145.337 363.555 145.337 365.17C145.337 366.785 146.689 368.13 148.312 368.13H150.612C153.587 368.13 156.022 370.552 156.022 373.513C156.022 373.714 155.887 373.849 155.684 373.849Z" fill="white"/>
<path d="M163.191 375.935C162.988 375.935 162.853 375.8 162.853 375.598V374.791C162.853 374.185 162.379 373.714 161.771 373.714C160.756 373.714 160.012 372.907 160.012 371.965V370.552C160.012 369.543 160.824 368.803 161.771 368.803H163.935C166.843 368.803 169.278 366.448 169.278 363.488V360.864C169.278 360.662 169.413 360.528 169.616 360.528C169.819 360.528 169.954 360.662 169.954 360.864V363.421C169.954 366.717 167.249 369.409 163.935 369.409H161.771C161.162 369.409 160.689 369.879 160.689 370.485V371.898C160.689 372.503 161.162 372.974 161.771 372.974C162.785 372.974 163.529 373.782 163.529 374.724V375.531C163.529 375.733 163.394 375.935 163.191 375.935Z" fill="white"/>
<path d="M423.361 574.611L438.646 609.663C441.216 613.7 444.191 614.642 448.722 616.19L471.852 623.859C474.084 624.6 471.446 628.838 471.446 628.838C471.04 629.376 470.432 629.713 469.688 629.713C469.011 629.713 468.267 629.376 467.794 628.905C467.726 628.838 467.659 628.838 467.659 628.838H467.253C467.185 628.838 467.118 628.905 467.05 628.973C466.644 629.444 466.036 629.713 465.427 629.713C464.818 629.713 464.074 629.444 463.601 628.973C463.398 628.771 463.06 628.838 462.857 629.04C462.519 629.444 462.046 629.645 461.504 629.645C461.031 629.645 460.422 629.444 459.949 629.107C459.746 628.973 459.408 628.973 459.205 629.175C458.935 629.444 458.461 629.645 458.055 629.645C457.379 629.645 456.838 629.309 456.568 628.771H456.365L425.661 628.3H425.593C422.077 628.233 419.304 625.407 419.168 621.908L419.033 619.554C418.898 616.661 417.951 613.902 416.328 611.48L402.329 588.941L423.361 574.611Z" fill="#CCCCCC"/>
<path opacity="0.15" d="M472.596 625.609C471.987 625.609 471.243 625.34 470.77 624.869C470.567 624.667 470.229 624.734 470.026 624.936C469.688 625.339 469.214 625.541 468.673 625.541C468.2 625.541 467.591 625.339 467.118 625.003C466.915 624.869 466.577 624.869 466.374 625.07C466.103 625.339 465.63 625.541 465.224 625.541C464.548 625.541 464.007 625.205 463.736 624.667H463.533L448.384 624.398L447.979 615.853C447.979 615.853 444.732 620.832 440.134 624.33L432.83 624.128C429.854 624.061 427.284 622.917 425.999 620.63L410.715 593.382C409.971 592.103 410.377 590.489 411.594 589.614L425.728 579.859L402.329 588.941L416.057 611.211C417.883 613.835 418.898 616.93 419.033 620.159L419.101 622.043C419.236 625.541 422.077 628.367 425.526 628.434H425.593L456.297 628.905H456.5C456.77 629.444 457.379 629.78 457.988 629.78C458.461 629.78 458.867 629.578 459.137 629.309C459.34 629.107 459.611 629.107 459.881 629.242C460.355 629.578 460.896 629.78 461.437 629.78C461.978 629.78 462.451 629.511 462.789 629.174C462.992 628.973 463.33 628.905 463.533 629.107C464.074 629.511 464.751 629.847 465.359 629.847C466.036 629.847 466.577 629.578 466.982 629.107C467.05 629.04 467.118 628.973 467.185 628.973H467.591C467.659 628.973 467.726 629.04 467.726 629.04C468.267 629.511 468.944 629.847 469.62 629.847C470.364 629.847 470.973 629.511 471.378 628.973C471.446 628.838 473.204 625.609 472.596 625.609Z" fill="black"/>
<path d="M476.586 628.165C476.451 625.003 474.422 622.177 471.378 621.101L450.008 614.642C449.196 614.373 448.384 614.777 448.114 615.584C447.302 618.275 445.273 624.061 441.283 628.165H420.048C419.236 628.165 418.56 628.838 418.56 629.645C418.56 630.453 419.236 631.125 420.048 631.125H475.098C475.91 631.125 476.586 630.453 476.586 629.645V628.165Z" fill="#21252B"/>
<path opacity="0.4" d="M476.586 628.165C476.518 625.609 475.166 623.388 473.137 621.975C475.774 623.859 472.596 625.743 468.809 625.609C449.128 624.667 446.558 624.667 444.259 624.465C444.327 624.398 444.327 624.33 444.327 624.263C443.447 625.609 442.501 626.954 441.351 628.098H420.115C419.304 628.098 418.627 628.771 418.627 629.578C418.627 630.386 419.304 631.058 420.115 631.058H475.166C475.977 631.058 476.654 630.386 476.654 629.578V628.165H476.586Z" fill="black"/>
<path opacity="0.4" d="M476.586 627.694H441.757L441.283 628.165H476.586V627.694Z" fill="black"/>
<path opacity="0.2" d="M269.978 432.786L263.823 459.294C261.592 468.78 254.626 476.652 245.225 479.545C242.655 480.352 239.883 480.756 237.11 480.756H204.445L209.72 439.648L269.978 432.786Z" fill="black"/>
<path d="M269.978 432.786L261.254 453.306C256.925 463.6 246.781 470.26 235.554 470.26H202.889L208.164 429.153L269.978 432.786Z" fill="#61A0FF"/>
<path opacity="0.4" d="M292.769 390.803C291.619 367.861 292.228 316.863 292.363 314.71L283.166 312.49L284.451 388.045C284.451 388.045 293.986 414.217 292.769 390.803Z" fill="black"/>
<path d="M90.6245 631.193H196.803C201.063 631.193 204.512 627.762 204.512 623.523V416.908C204.512 412.669 201.063 409.238 196.803 409.238H98.3342C94.0735 409.238 90.6245 412.669 90.6245 416.908V631.193Z" fill="#AAAAAA"/>
<path d="M194.909 410.113H118.894C118.691 410.113 118.555 409.911 118.555 409.642C118.555 409.372 118.691 409.171 118.894 409.171H194.977C195.18 409.171 195.315 409.372 195.315 409.642C195.315 409.911 195.112 410.113 194.909 410.113Z" fill="#CCCCCC"/>
<path opacity="0.15" d="M339.907 431.036L339.636 432.786H345.655L347.211 431.036H339.907Z" fill="black"/>
<path d="M250.974 287.799C250.501 302.331 254.153 310.741 246.037 310.472C233.052 310.001 222.908 297.89 223.381 283.358C223.855 268.826 234.81 257.388 247.863 257.859C250.298 270.441 251.515 273.266 250.974 287.799Z" fill="#21252B"/>
<path d="M280.399 311.665C293.433 311.533 303.895 301.185 303.766 288.553C303.636 275.921 292.965 265.787 279.932 265.919C266.897 266.051 256.436 276.398 256.565 289.031C256.694 301.663 267.365 311.797 280.399 311.665Z" fill="#21252B"/>
<path d="M251.177 277.909L249.418 309.261C249.351 310.472 248.472 311.548 247.254 311.817L237.38 313.97L249.418 334.423L283.233 324.735V312.49L281.001 311.952C279.784 311.683 278.905 310.606 278.837 309.328L277.687 274.814L251.177 277.909Z" fill="#CCCCCC"/>
<path d="M269.978 301.187L268.558 301.12C258.481 300.784 250.636 292.374 250.974 282.349L251.853 256.917C251.988 253.553 254.761 250.93 258.143 251.064L282.016 251.871C286.412 252.006 289.793 255.639 289.658 260.012L288.846 283.627C288.508 293.719 280.055 301.524 269.978 301.187Z" fill="#CCCCCC"/>
<g opacity="0.3">
<path opacity="0.3" d="M274.915 293.45H274.847C272.886 293.45 271.871 293.45 271.871 293.45C271.533 293.45 271.195 293.181 271.195 292.777C271.195 292.441 271.466 292.104 271.871 292.104C271.871 292.104 272.886 292.104 274.847 292.104C275.185 292.104 275.523 292.374 275.523 292.777C275.456 293.114 275.253 293.383 274.915 293.45Z" fill="black"/>
</g>
<g opacity="0.3">
<path opacity="0.3" d="M274.982 290.624C269.504 291.028 267.273 287.933 266.529 286.386C266.393 286.049 266.529 285.713 266.799 285.578C267.137 285.444 267.475 285.578 267.611 285.848C268.355 287.328 270.654 290.49 277.011 289.077C277.89 288.942 278.093 290.019 277.349 290.288C276.538 290.49 275.726 290.624 274.982 290.624Z" fill="black"/>
</g>
<path d="M269.437 277.639C270.52 277.639 271.398 276.766 271.398 275.688C271.398 274.611 270.52 273.737 269.437 273.737C268.353 273.737 267.475 274.611 267.475 275.688C267.475 276.766 268.353 277.639 269.437 277.639Z" fill="#21252B"/>
<path d="M270.181 276.967C270.404 276.967 270.586 276.786 270.586 276.563C270.586 276.34 270.404 276.159 270.181 276.159C269.957 276.159 269.775 276.34 269.775 276.563C269.775 276.786 269.957 276.967 270.181 276.967Z" fill="white"/>
<path d="M284.653 279.052C285.737 279.052 286.615 278.179 286.615 277.101C286.615 276.023 285.737 275.15 284.653 275.15C283.57 275.15 282.692 276.023 282.692 277.101C282.692 278.179 283.57 279.052 284.653 279.052Z" fill="#21252B"/>
<path d="M285.533 278.312C285.757 278.312 285.938 278.131 285.938 277.909C285.938 277.686 285.757 277.505 285.533 277.505C285.309 277.505 285.127 277.686 285.127 277.909C285.127 278.131 285.309 278.312 285.533 278.312Z" fill="white"/>
<g opacity="0.3">
<path opacity="0.3" d="M277.485 285.377H274.779C274.441 285.377 274.171 285.107 274.171 284.771C274.171 284.435 274.441 284.166 274.779 284.166H277.485C278.161 284.166 278.702 283.627 278.702 282.955C278.702 282.282 278.161 281.744 277.485 281.744C277.146 281.744 276.876 281.474 276.876 281.138C276.876 280.802 277.146 280.533 277.485 280.533C278.77 280.533 279.852 281.609 279.852 282.887C279.852 284.3 278.837 285.377 277.485 285.377Z" fill="black"/>
</g>
<path d="M296.556 272.392C293.783 270.171 295.203 266.404 295.203 266.404C295.88 264.856 296.353 263.107 296.556 261.223C297.165 255.168 294.054 252.612 292.363 251.67C291.754 251.333 291.416 250.66 291.416 249.988C291.619 231.015 265.988 224.556 251.515 234.783C242.791 240.972 240.288 248.373 240.424 255.572C240.424 255.572 240.627 258.734 237.651 260.08L241.1 261.829C242.114 267.211 244.008 272.123 245.022 275.957C245.428 277.572 248.945 271.181 250.365 270.575C250.568 270.508 251.718 272.392 252.462 273.603C252.935 274.343 254.085 274.343 254.423 273.535C255.64 270.441 256.317 267.144 256.452 263.78L256.587 260.752C263.282 260.349 266.326 254.226 266.326 254.226C272.277 261.963 283.301 262.031 287.832 261.694C288.914 261.627 289.793 262.434 289.726 263.511L289.32 274.881C289.32 274.881 291.146 273.334 292.972 270.71L295.812 273.064L296.556 272.392Z" fill="#21252B"/>
<path d="M252.259 283.493C252.259 283.493 243.535 284.233 241.641 275.688C239.747 267.144 250.433 265.462 251.988 274.074L253.206 283.493H252.259Z" fill="#CCCCCC"/>
<path opacity="0.3" d="M244.279 271.113C245.225 270.44 246.105 270.239 246.916 270.373C247.728 270.508 248.472 271.113 249.013 272.055C249.621 272.997 249.959 274.141 250.027 275.419L250.095 276.361C250.162 277.034 248.945 277.236 248.945 276.496C248.877 275.487 248.877 275.487 248.877 275.487C248.877 275.217 248.674 273.603 248.066 272.728C247.66 272.055 247.187 271.652 246.713 271.584C246.172 271.45 245.631 271.652 244.955 272.123C244.684 272.324 244.346 272.257 244.143 271.988C244.008 271.652 244.076 271.315 244.279 271.113Z" fill="black"/>
<path d="M286.885 269.162C284.383 269.162 282.151 270.306 280.731 272.123C278.634 271.181 276.673 271.517 275.862 271.786C274.577 269.23 271.871 267.413 268.761 267.413C264.365 267.413 260.848 270.979 260.848 275.285C260.848 279.658 264.432 283.156 268.761 283.156C273.089 283.156 276.673 279.591 276.673 275.285C276.673 274.343 276.538 273.535 276.2 272.661C276.944 272.459 278.499 272.257 280.122 272.93C279.378 274.141 278.973 275.554 278.973 277.034C278.973 281.407 282.557 284.906 286.885 284.906C291.281 284.906 294.798 281.34 294.798 277.034C294.798 272.661 291.281 269.162 286.885 269.162ZM268.761 282.147C264.973 282.147 261.862 279.052 261.862 275.285C261.862 271.517 264.973 268.422 268.761 268.422C272.548 268.422 275.659 271.517 275.659 275.285C275.659 279.052 272.548 282.147 268.761 282.147ZM286.885 283.896C283.098 283.896 279.987 280.802 279.987 277.034C279.987 273.266 283.098 270.171 286.885 270.171C290.672 270.171 293.783 273.266 293.783 277.034C293.783 280.802 290.74 283.896 286.885 283.896Z" fill="white"/>
<path d="M249.892 282.214C250.863 282.214 251.65 281.431 251.65 280.465C251.65 279.499 250.863 278.716 249.892 278.716C248.921 278.716 248.134 279.499 248.134 280.465C248.134 281.431 248.921 282.214 249.892 282.214Z" fill="#61A0FF"/>
<path opacity="0.15" d="M250.501 281.945C249.486 281.945 248.607 281.138 248.607 280.061C248.607 279.725 248.742 279.389 248.877 279.052C248.404 279.389 248.134 279.86 248.134 280.465C248.134 281.407 248.877 282.214 249.892 282.214C250.23 282.214 250.636 282.08 250.906 281.878C250.771 281.945 250.636 281.945 250.501 281.945Z" fill="black"/>
<path d="M237.313 313.97C237.313 313.97 268.422 369.61 271.127 431.709L301.02 431.777L300.276 429.085C288.914 393.966 282.083 333.01 283.233 312.49C281.813 322.986 262.674 330.857 245.902 320.16C243.602 318.747 237.313 313.97 237.313 313.97Z" fill="white"/>
<path d="M264.838 328.503C264.567 328.503 264.297 328.503 264.026 328.503C254.288 328.234 245.496 323.524 242.588 320.429C242.385 320.227 242.385 319.891 242.588 319.689C242.791 319.487 243.129 319.487 243.332 319.689C246.172 322.784 254.964 327.157 264.026 327.426C270.992 327.628 276.944 325.408 281.61 320.9C281.813 320.698 282.151 320.698 282.354 320.9C282.557 321.102 282.557 321.438 282.354 321.64C277.688 326.215 271.736 328.503 264.838 328.503Z" fill="#CCCCCC"/>
<path d="M248.066 410.449L284.856 418.994L304.807 419.666C306.904 419.801 307.918 420.406 309.406 422.088L319.144 431.709C319.821 432.517 320.024 433.459 319.28 434.199C318.468 434.939 317.86 434.535 317.048 433.795L305.28 424.107L311.84 433.93C312.584 435.073 312.787 436.352 311.502 436.621C310.758 436.823 310.014 436.553 309.541 435.948L300.479 424.578L307.377 433.257C308.188 434.266 307.715 435.813 306.43 436.15C305.821 436.284 305.145 436.15 304.739 435.679L294.798 426.26L301.561 432.651C302.372 433.391 302.169 434.67 301.223 435.208C300.749 435.477 300.141 435.477 299.667 435.208L290.199 429.758C289.252 429.22 288.17 429.153 287.156 429.489L283.098 430.902C279.784 432.046 276.403 431.507 272.886 431.037L241.506 428.009L248.066 410.449Z" fill="#CCCCCC"/>
<path opacity="0.15" d="M289.59 428.547C286.276 429.691 282.895 429.153 279.378 428.682L258.345 425.452L258.143 412.535L252.597 429.018L272.886 430.969C276.335 431.44 279.784 431.911 283.098 430.835L287.156 429.422C288.17 429.085 289.252 429.153 290.199 429.691L289.59 428.547Z" fill="black"/>
<path opacity="0.15" d="M301.425 432.988C301.358 432.988 301.29 432.92 301.223 432.92L295.001 427.067C294.865 426.932 294.865 426.731 295.001 426.596C295.136 426.461 295.339 426.461 295.474 426.596L301.696 432.449C301.831 432.584 301.831 432.786 301.696 432.92C301.628 432.92 301.561 432.988 301.425 432.988Z" fill="black"/>
<path opacity="0.15" d="M307.309 433.593C307.242 433.593 307.174 433.526 307.106 433.459L300.614 425.318C300.479 425.183 300.546 424.981 300.682 424.847C300.817 424.712 301.02 424.78 301.155 424.914L307.647 433.055C307.783 433.189 307.715 433.391 307.58 433.526C307.512 433.526 307.445 433.593 307.309 433.593Z" fill="black"/>
<path opacity="0.15" d="M292.498 428.884C294.595 430.296 298.247 432.718 299.464 433.593C301.223 434.871 301.899 433.593 301.966 433.526C302.034 434.131 301.764 434.804 301.155 435.14C300.682 435.41 300.073 435.41 299.599 435.14L290.131 429.691C289.185 429.153 288.102 429.085 287.088 429.422L289.185 428.547C290.267 428.143 291.484 428.278 292.498 428.884Z" fill="black"/>
<path d="M258.143 412.535L232.984 406.479L204.986 408.498C206.406 417.379 210.396 424.914 219.256 426.058L252.529 429.018L258.143 412.535Z" fill="#61A0FF"/>
<path opacity="0.15" d="M223.787 421.685C216.483 420.743 213.034 414.553 210.87 408.094L200.996 344.986C199.305 334.02 205.797 323.12 215.942 319.084L213.237 319.756C201.266 322.582 193.421 334.154 195.315 346.264L205.189 409.373C205.189 409.373 205.189 409.373 205.189 409.44C206.744 417.917 210.734 425.049 219.323 426.125L252.597 429.085L254.152 424.443L223.787 421.685Z" fill="black"/>
<path d="M181.248 631.193H231.97V416.908C231.97 412.669 228.521 409.238 224.26 409.238H188.958C184.697 409.238 181.248 412.669 181.248 416.908V631.193Z" fill="#CCCCCC"/>
<path opacity="0.15" d="M267.949 414.082L242.047 407.489L224.734 344.582C224.531 343.977 223.584 344.179 223.652 344.784L232.917 406.547L267.814 415.091C268.084 415.159 268.355 414.957 268.355 414.62C268.422 414.351 268.287 414.082 267.949 414.082Z" fill="black"/>
<path d="M260.78 435.275H327.463C328.004 435.275 328.477 435.746 328.477 436.284V437.966C328.477 438.505 328.004 438.975 327.463 438.975H260.78C260.239 438.975 259.766 438.505 259.766 437.966V436.284C259.833 435.746 260.239 435.275 260.78 435.275Z" fill="#21252B"/>
<path opacity="0.6" d="M260.78 435.275H327.463C328.004 435.275 328.477 435.746 328.477 436.284V437.966C328.477 438.505 328.004 438.975 327.463 438.975H260.78C260.239 438.975 259.766 438.505 259.766 437.966V436.284C259.833 435.746 260.239 435.275 260.78 435.275Z" fill="black"/>
<path d="M305.821 435.275H422.076C422.618 435.275 423.091 435.746 423.091 436.284V437.966C423.091 438.505 422.618 438.975 422.076 438.975H305.821C305.28 438.975 304.807 438.505 304.807 437.966V436.284C304.807 435.746 305.28 435.275 305.821 435.275Z" fill="#21252B"/>
<path opacity="0.2" d="M306.971 338.191L311.908 353.8C313.937 360.259 313.193 366.65 309.609 372.974L306.43 378.222C305.754 379.299 305.551 380.51 305.754 381.788L312.99 427.134L325.366 404.327L325.299 391.947L308.121 337.989C307.918 337.316 306.836 337.518 306.971 338.191Z" fill="black"/>
<g opacity="0.6">
<path opacity="0.6" d="M420.521 435.948H302.237C302.034 435.948 301.899 435.813 301.899 435.611C301.899 435.41 302.034 435.275 302.237 435.275H420.589C420.791 435.275 420.927 435.41 420.927 435.611C420.927 435.813 420.724 435.948 420.521 435.948Z" fill="black"/>
</g>
<path d="M305.551 435.275H323.067C324.419 435.275 325.569 434.333 325.84 432.988L340.515 356.222C340.853 354.473 339.501 352.925 337.742 352.925H320.226C318.874 352.925 317.724 353.867 317.454 355.213L302.778 431.978C302.44 433.66 303.792 435.275 305.551 435.275Z" fill="#21252B"/>
<path opacity="0.6" d="M305.551 435.275H323.067C324.419 435.275 325.569 434.333 325.84 432.988L340.515 356.222C340.853 354.473 339.501 352.925 337.742 352.925H320.226C318.874 352.925 317.724 353.867 317.454 355.213L302.778 431.978C302.44 433.66 303.792 435.275 305.551 435.275Z" fill="black"/>
<path d="M308.053 435.275H420.521C421.874 435.275 423.023 434.333 423.294 432.988L437.969 356.222C438.308 354.473 436.955 352.925 435.197 352.925H322.729C321.376 352.925 320.226 353.867 319.956 355.213L305.28 431.978C304.942 433.66 306.295 435.275 308.053 435.275Z" fill="#21252B"/>
<path opacity="0.6" d="M372.301 391.947C371.625 393.494 372.369 394.84 373.924 394.84C373.992 394.84 374.127 394.84 374.195 394.84C372.369 396.858 369.596 398.271 367.161 398.204C363.848 398.137 362.292 395.446 363.78 392.149C365.2 388.852 369.123 386.296 372.437 386.363C374.533 386.43 375.953 387.507 376.291 389.189C374.668 389.189 372.978 390.4 372.301 391.947Z" fill="black"/>
<path d="M397.324 583.088L401.923 589.479L426.472 580.128L422.617 571.449L397.324 583.088Z" fill="#61A0FF"/>
<path d="M452.104 582.953L456.432 589.479L481.049 580.128L477.127 571.449L452.104 582.953Z" fill="#61A0FF"/>
<path d="M285.465 264.789C285.465 264.789 285.397 264.789 285.465 264.789C277.755 264.453 272.683 261.627 269.775 259.339C266.596 256.85 265.311 254.428 265.244 254.361C265.108 254.092 265.176 253.823 265.447 253.688C265.717 253.553 265.988 253.621 266.123 253.89C266.19 253.957 271.33 263.174 285.465 263.78C285.735 263.78 285.938 264.049 285.938 264.318C285.938 264.587 285.735 264.789 285.465 264.789Z" fill="#21252B"/>
<path opacity="0.15" d="M250.974 283.493H253.409L250.5 289.279L250.974 283.493Z" fill="black"/>
<path opacity="0.15" d="M278.499 299.438C275.726 300.784 272.615 301.322 269.369 301.187C268.693 301.187 267.949 301.12 267.273 301.053C267.002 300.985 266.732 300.986 266.461 300.918C266.393 300.918 266.326 300.918 266.258 300.918C265.852 300.851 265.447 300.784 265.041 300.649C264.906 300.582 264.703 300.582 264.567 300.515C261.862 299.774 259.901 298.698 258.616 297.823C258.413 297.689 258.075 297.689 257.94 297.958C257.805 298.16 257.805 298.496 258.075 298.631C259.698 299.774 262.268 301.12 265.852 301.793C267.611 303.34 270.722 305.359 274.78 305.56C276.132 305.628 277.417 305.628 278.702 305.426L278.499 299.438Z" fill="black"/>
<path opacity="0.4" d="M225.275 316.796C229.738 322.784 250.974 355.347 267.475 400.492C259.36 354.002 237.313 313.97 237.313 313.97L225.275 316.796Z" fill="black"/>
</g>
<path opacity="0.7" d="M409.327 58.7769C424.891 67.765 424.891 90.2351 409.327 99.2231L313.02 154.837C297.456 163.825 278 152.59 278 134.614L278 23.3865C278 5.41037 297.456 -5.82468 313.02 3.16336L409.327 58.7769Z" fill="#E7E7E7" fill-opacity="0.6"/>
<path opacity="0.7" d="M413.5 117.242C422.167 122.245 422.167 134.755 413.5 139.758L373.75 162.708C365.083 167.712 354.25 161.457 354.25 151.45L354.25 105.55C354.25 95.5429 365.083 89.2883 373.75 94.292L413.5 117.242Z" fill="url(#paint2_linear)"/>
<defs>
<linearGradient id="paint0_linear" x1="366.587" y1="438.908" x2="366.587" y2="584.635" gradientUnits="userSpaceOnUse">
<stop stop-color="#94BFFF"/>
<stop offset="1" stop-color="#61A0FF"/>
</linearGradient>
<linearGradient id="paint1_linear" x1="312.178" y1="438.908" x2="312.178" y2="584.635" gradientUnits="userSpaceOnUse">
<stop stop-color="#94BFFF"/>
<stop offset="1" stop-color="#61A0FF"/>
</linearGradient>
<linearGradient id="paint2_linear" x1="433" y1="128.5" x2="328" y2="128.5" gradientUnits="userSpaceOnUse">
<stop stop-color="#94BFFF"/>
<stop offset="1" stop-color="#61A0FF"/>
</linearGradient>
<clipPath id="clip0">
<rect width="642" height="632" fill="white"/>
</clipPath>
</defs>
</svg>
