<svg width="640" height="463" viewBox="0 0 640 463" fill="none" xmlns="http://www.w3.org/2000/svg">
<g clip-path="url(#clip0)">
<path d="M-73.8988 307.215L-0.559048 601H800.769L834.655 358.086C835.371 352.839 834.973 347.446 833.462 342.344L762.986 108.832C758.372 93.5272 744.293 82.1577 727.191 79.8255L231.149 0.435211C215.637 -1.67835 200.126 4.0064 190.422 15.303L-65.6262 273.471C-73.8192 283.019 -76.8419 295.409 -73.8988 307.215Z" fill="#FAFAFA"/>
<path d="M690.594 464H-45.6617C-45.8647 464 -46 463.4 -46 462.5C-46 461.6 -45.8647 461 -45.6617 461H690.662C690.865 461 691 461.6 691 462.5C691 463.4 690.797 464 690.594 464Z" fill="#CCCCCC"/>
<path d="M641.467 368.742L610.425 402.247L610.627 340.619H609.816L609.748 370.491L583.508 343.916L582.967 344.454L609.748 371.635L609.545 427.477H610.357L610.425 403.391L642.008 369.28L641.467 368.742Z" fill="#21252B"/>
<path d="M586.551 402.18L586.01 402.718L599.672 415.501L601.836 427.544L602.58 427.409L593.991 379.237L593.179 379.372L599.469 414.223L586.551 402.18Z" fill="#21252B"/>
<path d="M596.628 462.193H615.903C619.487 462.193 622.463 459.3 622.463 455.667V430.302H590.068V455.667C590.068 459.232 592.976 462.193 596.628 462.193Z" fill="#AAAAAA"/>
<path d="M610.222 340.686C621.353 340.686 630.375 331.71 630.375 320.637C630.375 309.564 621.353 300.588 610.222 300.588C599.09 300.588 590.068 309.564 590.068 320.637C590.068 331.71 599.09 340.686 610.222 340.686Z" fill="#61A0FF"/>
<path d="M592.165 381.256C600.118 381.256 606.57 374.84 606.57 366.925C606.57 359.011 600.118 352.595 592.165 352.595C584.211 352.595 577.76 359.011 577.76 366.925C577.76 374.84 584.211 381.256 592.165 381.256Z" fill="#61A0FF"/>
<g opacity="0.3">
<path opacity="0.3" d="M592.165 381.256C600.118 381.256 606.57 374.84 606.57 366.925C606.57 359.011 600.118 352.595 592.165 352.595C584.211 352.595 577.76 359.011 577.76 366.925C577.76 374.84 584.211 381.256 592.165 381.256Z" fill="white"/>
</g>
<g opacity="0.3">
<path opacity="0.3" d="M610.222 340.686C621.353 340.686 630.375 331.71 630.375 320.637C630.375 309.564 621.353 300.588 610.222 300.588C599.09 300.588 590.068 309.564 590.068 320.637C590.068 331.71 599.09 340.686 610.222 340.686Z" fill="white"/>
</g>
<path d="M579.315 348.827C584.056 348.827 587.904 345.001 587.904 340.282C587.904 335.564 584.056 331.738 579.315 331.738C574.574 331.738 570.726 335.564 570.726 340.282C570.726 345.001 574.574 348.827 579.315 348.827Z" fill="#61A0FF"/>
<path d="M579.112 405.947C584.752 405.947 589.324 401.398 589.324 395.788C589.324 390.177 584.752 385.629 579.112 385.629C573.472 385.629 568.9 390.177 568.9 395.788C568.9 401.398 573.472 405.947 579.112 405.947Z" fill="#61A0FF"/>
<path d="M633.757 390.742C640.966 390.742 646.809 384.928 646.809 377.757C646.809 370.586 640.966 364.772 633.757 364.772C626.547 364.772 620.704 370.586 620.704 377.757C620.704 384.928 626.547 390.742 633.757 390.742Z" fill="#61A0FF"/>
<path d="M623.139 426.871H589.392C588.445 426.871 587.701 427.611 587.701 428.553C587.701 429.495 588.445 430.235 589.392 430.235H623.139C624.086 430.235 624.83 429.495 624.83 428.553C624.83 427.611 624.086 426.871 623.139 426.871Z" fill="#AAAAAA"/>
<path d="M590.068 320.637C590.068 309.536 599.131 300.588 610.222 300.588V340.753C599.063 340.686 590.068 331.738 590.068 320.637Z" fill="#61A0FF"/>
<path d="M594.261 381.121C586.484 382.265 579.247 377.017 577.895 369.28C576.61 361.677 581.615 354.411 589.189 352.864L594.261 381.121Z" fill="#61A0FF"/>
<path opacity="0.3" d="M573.228 346.338C569.847 343.041 569.779 337.591 573.161 334.227C573.161 334.227 573.228 334.16 573.296 334.16L585.334 346.405C582.02 349.634 576.61 349.634 573.228 346.338Z" fill="black"/>
<path opacity="0.3" d="M586.348 402.92C582.358 406.956 575.866 406.956 571.876 402.987C567.886 399.085 567.818 392.693 571.673 388.724L586.551 402.651C586.551 402.785 586.484 402.852 586.348 402.92Z" fill="black"/>
<path d="M622.395 430.302H592.909C591.962 430.302 591.218 429.562 591.218 428.62C591.218 427.679 591.962 426.938 592.909 426.938H589.324C588.377 426.938 587.634 427.679 587.634 428.62C587.634 429.562 588.377 430.302 589.324 430.302H590.001V430.841V455.667C590.001 459.232 592.909 462.193 596.561 462.193H606.84C606.976 462.193 607.043 462.193 607.043 462.193C602.444 462.193 598.522 458.963 597.643 454.523L592.976 430.841H622.327V430.302H622.395Z" fill="#929191"/>
<path opacity="0.3" d="M642.616 368.203C642.549 368.136 642.481 368.136 642.481 368.069L624.897 387.244L624.965 387.311C630.24 392.155 638.558 391.819 643.428 386.571C648.229 381.256 647.891 373.048 642.616 368.203Z" fill="black"/>
<path opacity="0.4" d="M34.1538 129.361H25.8353V161.79V457.887H28.2024V132.658H34.1538V129.361Z" fill="black"/>
<path d="M13.3915 129.362H46.5299C49.5733 129.362 52.0756 126.872 52.0756 123.845V106.688H7.91351V123.845C7.91351 126.872 10.3482 129.362 13.3915 129.362Z" fill="#AAAAAA"/>
<path d="M25.8035 457.846H34.122V129.32H25.8035V457.846Z" fill="#AAAAAA"/>
<path d="M34.1538 129.361H25.8353V450.217H28.1348V132.456H34.1538V129.361Z" fill="#21252B"/>
<path d="M13.4591 123.845V119.471H7.91351V123.845C7.91351 126.872 10.4158 129.362 13.4591 129.362H19.0048C15.8938 129.362 13.4591 126.872 13.4591 123.845Z" fill="#21252B"/>
<path d="M-14.5394 461.856C-16.0949 461.856 -16.6359 459.703 -15.2157 459.031C-2.09561 452.706 13.3915 449.006 29.9607 449.006C46.53 449.006 62.0171 452.639 75.1372 459.031C76.5574 459.703 76.084 461.856 74.4609 461.856H-14.5394Z" fill="#AAAAAA"/>
<path d="M35.1006 449.141C33.4098 449.073 31.7191 449.006 30.0284 449.006C13.4591 449.006 -2.028 452.639 -15.1481 459.031C-16.5683 459.703 -16.0949 461.856 -14.4718 461.856H0.609542C4.59968 456.474 19.3429 450.15 35.1006 449.141Z" fill="#21252B"/>
<path d="M65.0604 234.587C64.8575 234.587 64.7223 234.452 64.7223 234.25V119.875C64.7223 119.673 64.8575 119.539 65.0604 119.539C65.2633 119.539 65.3986 119.673 65.3986 119.875V234.25C65.3986 234.452 65.1957 234.587 65.0604 234.587Z" fill="#21252B"/>
<path d="M1.62397 27.1641H58.9738L90.8949 117.789H-30.9734L1.62397 27.1641Z" fill="#61A0FF"/>
<path d="M1.62397 27.1641H19.7487L7.23721 117.789H-30.9734L1.62397 27.1641Z" fill="#61A0FF"/>
<path d="M1.58276 27.185H59.0002V23.081H1.58276V27.185Z" fill="#61A0FF"/>
<path d="M-30.9376 121.848H90.9307V117.744H-30.9376V121.848Z" fill="#61A0FF"/>
<path opacity="0.4" d="M1.62397 27.1641H58.9738L90.8949 117.789H-30.9734L1.62397 27.1641Z" fill="white"/>
<path opacity="0.4" d="M15.8262 27.1641H58.9738L90.8949 117.789H2.09741L15.8262 27.1641Z" fill="white"/>
<path d="M248.675 75.9416C256.182 75.9416 262.268 69.8872 262.268 62.4185C262.268 54.9498 256.182 48.8954 248.675 48.8954C241.167 48.8954 235.081 54.9498 235.081 62.4185C235.081 69.8872 241.167 75.9416 248.675 75.9416Z" fill="#21252B"/>
<path d="M240.153 72.9141C243.197 75.3362 247.254 76.4799 251.447 75.6726C258.819 74.1924 263.553 66.9935 261.997 59.7273C261.93 59.2564 261.795 58.7854 261.592 58.3145C255.37 58.7181 244.414 63.2259 240.153 72.9141Z" fill="#61A0FF"/>
<path d="M391.305 274.214H159.674C155.413 274.214 151.964 270.783 151.964 266.544V132.524H391.305C395.566 132.524 399.015 135.955 399.015 140.193V266.544C399.015 270.783 395.566 274.214 391.305 274.214Z" fill="#CCCCCC"/>
<path d="M158.727 274.214H123.425C119.164 274.214 115.715 270.783 115.715 266.544V140.126C115.715 135.888 119.164 132.456 123.425 132.456H158.727C162.988 132.456 166.437 135.888 166.437 140.126V266.544C166.437 270.783 162.988 274.214 158.727 274.214Z" fill="#AAAAAA"/>
<path d="M387.586 462.193H501.473V247.908C501.473 243.669 498.024 240.238 493.764 240.238H395.295C391.035 240.238 387.586 243.669 387.586 247.908V462.193Z" fill="#AAAAAA"/>
<path d="M476.045 462.193H526.767V247.908C526.767 243.669 523.318 240.238 519.057 240.238H483.755C479.494 240.238 476.045 243.669 476.045 247.908V462.193Z" fill="#CCCCCC"/>
<path d="M476.072 364.583V314.124H226.994V364.583H476.072Z" fill="#CCCCCC"/>
<path d="M478.277 405.611L453.254 415.635C423.835 371.5 409.7 359.053 390.223 314.111H254.896L266.461 269.908H401.72C410.647 269.908 418.695 275.291 422.076 283.499L478.277 405.611Z" fill="url(#paint0_linear)"/>
<path opacity="0.2" d="M453.186 415.635L460.828 412.002L399.962 283.499C396.58 275.291 388.532 269.908 379.605 269.908H266.461L254.896 314.111H372.098H390.155C409.7 359.053 424.511 372.375 453.186 415.635Z" fill="black"/>
<path opacity="0.2" d="M239.117 364.565V314.105H231.948V364.565H239.117Z" fill="black"/>
<path d="M475.639 371.971C475.436 371.971 475.233 371.836 475.233 371.635V281.278C475.233 281.077 475.436 280.942 475.639 280.942C475.842 280.942 476.045 281.077 476.045 281.278V371.635C476.045 371.836 475.842 371.971 475.639 371.971Z" fill="#AAAAAA"/>
<path d="M343.423 260.489L316.372 164.347C314.207 155.87 307.444 149.276 298.923 147.191L283.165 143.423L237.313 144.903L213.101 150.622C201.131 153.448 193.286 165.02 195.179 177.13L205.053 240.238C205.189 241.247 212.831 253.896 222.772 263.719H345.588" fill="#61A0FF"/>
<path opacity="0.2" d="M308.053 253.425L308.121 253.357L308.257 253.493L308.053 253.425Z" fill="black"/>
<path d="M332.4 256.587C331.723 257.394 330.506 257.596 329.627 256.923L317.656 248.177L332.873 255.107C332.941 255.645 332.738 256.183 332.4 256.587Z" fill="#AAAAAA"/>
<path d="M424.038 405.611L398.677 415.635C366.62 370.962 355.123 359.053 335.578 314.111H200.319L211.884 269.908H347.143C356.07 269.908 364.118 275.291 367.499 283.499L424.038 405.611Z" fill="url(#paint1_linear)"/>
<path opacity="0.2" d="M398.677 415.635L405.034 412.339L354.041 300.924C350.66 292.716 342.612 287.334 333.685 287.334H207.353L200.387 314.111H335.646C355.123 359.053 366.62 370.962 398.677 415.635Z" fill="black"/>
<path d="M477.871 405.611L493.155 440.663C495.725 444.7 498.701 445.642 503.232 447.19L526.361 454.859C528.593 455.6 525.955 459.838 525.955 459.838C525.549 460.376 524.941 460.713 524.197 460.713C523.52 460.713 522.777 460.376 522.303 459.905C522.236 459.838 522.168 459.838 522.168 459.838H521.762C521.694 459.838 521.627 459.905 521.559 459.973C521.154 460.444 520.545 460.713 519.936 460.713C519.327 460.713 518.584 460.444 518.11 459.973C517.907 459.771 517.569 459.838 517.366 460.04C517.028 460.444 516.555 460.645 516.014 460.645C515.54 460.645 514.932 460.444 514.458 460.107C514.255 459.973 513.917 459.973 513.714 460.175C513.444 460.444 512.97 460.645 512.565 460.645C511.888 460.645 511.347 460.309 511.077 459.771H510.874L480.17 459.3H480.103C476.586 459.233 473.813 456.407 473.678 452.908L473.542 450.554C473.407 447.661 472.46 444.902 470.837 442.48L456.838 419.807L477.871 405.611Z" fill="#CCCCCC"/>
<path opacity="0.15" d="M527.105 456.609C526.496 456.609 525.752 456.34 525.279 455.869C525.076 455.667 524.738 455.734 524.535 455.936C524.197 456.34 523.723 456.541 523.182 456.541C522.709 456.541 522.1 456.34 521.627 456.003C521.424 455.869 521.086 455.869 520.883 456.07C520.613 456.34 520.139 456.541 519.733 456.541C519.057 456.541 518.516 456.205 518.245 455.667H518.043L502.894 455.398L502.488 446.853C502.488 446.853 499.242 451.832 494.643 455.33L487.339 455.128C484.363 455.061 481.793 453.917 480.508 451.63L465.224 424.382C464.48 423.103 464.886 421.489 466.103 420.614L480.238 410.859L456.838 419.807L470.567 442.076C472.393 444.7 473.407 447.795 473.543 451.024L473.61 452.908C473.745 456.407 476.586 459.233 480.035 459.3H480.103L510.806 459.771H511.009C511.28 460.309 511.888 460.645 512.497 460.645C512.97 460.645 513.376 460.444 513.647 460.174C513.85 459.973 514.12 459.973 514.391 460.107C514.864 460.444 515.405 460.645 515.946 460.645C516.487 460.645 516.961 460.376 517.299 460.04C517.502 459.838 517.84 459.771 518.043 459.973C518.584 460.376 519.26 460.713 519.869 460.713C520.545 460.713 521.086 460.444 521.492 459.973C521.559 459.905 521.627 459.838 521.695 459.838H522.1C522.168 459.838 522.236 459.905 522.236 459.905C522.777 460.376 523.453 460.713 524.129 460.713C524.873 460.713 525.482 460.376 525.888 459.838C525.955 459.838 527.714 456.609 527.105 456.609Z" fill="black"/>
<path d="M531.095 459.165C530.96 456.003 528.931 453.177 525.888 452.101L504.517 445.642C503.705 445.373 502.894 445.777 502.623 446.584C501.812 449.275 499.783 455.061 495.793 459.165H474.557C473.745 459.165 473.069 459.838 473.069 460.645C473.069 461.453 473.745 462.125 474.557 462.125H529.607C530.419 462.125 531.095 461.453 531.095 460.645V459.165Z" fill="#21252B"/>
<path opacity="0.4" d="M531.095 459.165C531.028 456.609 529.675 454.388 527.646 452.975C530.284 454.859 529.81 456.743 526.023 456.609C506.343 455.667 501.068 455.667 498.768 455.465C498.836 455.398 498.836 455.33 498.836 455.263C497.957 456.609 497.01 457.954 495.86 459.098H474.625C473.813 459.098 473.137 459.771 473.137 460.578C473.137 461.386 473.813 462.058 474.625 462.058H529.675C530.487 462.058 531.163 461.386 531.163 460.578V459.165H531.095Z" fill="black"/>
<path opacity="0.4" d="M531.095 458.021L496.266 458.694L495.792 459.165L531.095 458.492V458.021Z" fill="black"/>
<path d="M168.736 240.305H151.288C148.583 240.305 146.419 238.152 146.419 235.461V206.935H173.673V235.461C173.606 238.152 171.442 240.305 168.736 240.305Z" fill="#21252B"/>
<path d="M177.866 230.55H173.606V228.464H177.866C178.948 228.464 179.828 227.59 179.828 226.513V214.874C179.828 213.797 178.948 212.923 177.866 212.923H173.606V210.837H177.866C180.098 210.837 181.857 212.654 181.857 214.807V226.446C181.924 228.733 180.098 230.55 177.866 230.55Z" fill="#21252B"/>
<path opacity="0.6" d="M175.499 212.922V210.837H173.606V206.867H167.654V234.923C167.654 237.345 165.693 239.296 163.258 239.296H148.177C148.989 239.969 150.071 240.372 151.22 240.372H168.669C171.374 240.372 173.538 238.22 173.538 235.528V230.617H175.432V228.531H173.538V212.99H175.499V212.922Z" fill="black"/>
<path d="M155.684 204.849C155.481 204.849 155.346 204.714 155.346 204.513C155.346 201.956 153.249 199.803 150.612 199.803H148.312C146.284 199.803 144.66 198.188 144.66 196.17C144.66 194.152 146.284 192.537 148.312 192.537H161.297C162.92 192.537 164.273 191.191 164.273 189.577C164.273 187.962 162.92 186.616 161.297 186.616H158.186C156.09 186.616 154.467 184.934 154.467 182.916C154.467 182.714 154.602 182.58 154.805 182.58C155.008 182.58 155.143 182.714 155.143 182.916C155.143 184.598 156.496 185.944 158.186 185.944H161.297C163.326 185.944 164.949 187.558 164.949 189.577C164.949 191.595 163.326 193.21 161.297 193.21H148.312C146.689 193.21 145.337 194.555 145.337 196.17C145.337 197.785 146.689 199.13 148.312 199.13H150.612C153.587 199.13 156.022 201.552 156.022 204.513C156.022 204.714 155.887 204.849 155.684 204.849Z" fill="white"/>
<path d="M163.191 206.935C162.988 206.935 162.853 206.8 162.853 206.598V205.791C162.853 205.185 162.379 204.714 161.771 204.714C160.756 204.714 160.012 203.907 160.012 202.965V201.552C160.012 200.543 160.824 199.803 161.771 199.803H163.935C166.843 199.803 169.278 197.448 169.278 194.488V191.864C169.278 191.662 169.413 191.528 169.616 191.528C169.819 191.528 169.954 191.662 169.954 191.864V194.421C169.954 197.717 167.249 200.409 163.935 200.409H161.771C161.162 200.409 160.689 200.879 160.689 201.485V202.898C160.689 203.503 161.162 203.974 161.771 203.974C162.785 203.974 163.529 204.782 163.529 205.724V206.531C163.529 206.733 163.394 206.935 163.191 206.935Z" fill="white"/>
<path d="M423.361 405.611L438.646 440.663C441.216 444.7 444.191 445.642 448.722 447.19L471.852 454.859C474.084 455.6 471.446 459.838 471.446 459.838C471.04 460.376 470.432 460.713 469.688 460.713C469.011 460.713 468.267 460.376 467.794 459.905C467.726 459.838 467.659 459.838 467.659 459.838H467.253C467.185 459.838 467.118 459.905 467.05 459.973C466.644 460.444 466.036 460.713 465.427 460.713C464.818 460.713 464.074 460.444 463.601 459.973C463.398 459.771 463.06 459.838 462.857 460.04C462.519 460.444 462.046 460.645 461.504 460.645C461.031 460.645 460.422 460.444 459.949 460.107C459.746 459.973 459.408 459.973 459.205 460.175C458.935 460.444 458.461 460.645 458.055 460.645C457.379 460.645 456.838 460.309 456.568 459.771H456.365L425.661 459.3H425.593C422.077 459.233 419.304 456.407 419.168 452.908L419.033 450.554C418.898 447.661 417.951 444.902 416.328 442.48L402.329 419.941L423.361 405.611Z" fill="#CCCCCC"/>
<path opacity="0.15" d="M472.596 456.609C471.987 456.609 471.243 456.34 470.77 455.869C470.567 455.667 470.229 455.734 470.026 455.936C469.688 456.339 469.214 456.541 468.673 456.541C468.2 456.541 467.591 456.339 467.118 456.003C466.915 455.869 466.577 455.869 466.374 456.07C466.103 456.339 465.63 456.541 465.224 456.541C464.548 456.541 464.007 456.205 463.736 455.667H463.533L448.384 455.398L447.979 446.853C447.979 446.853 444.732 451.832 440.134 455.33L432.83 455.128C429.854 455.061 427.284 453.917 425.999 451.63L410.715 424.382C409.971 423.103 410.377 421.489 411.594 420.614L425.728 410.859L402.329 419.941L416.057 442.211C417.883 444.835 418.898 447.93 419.033 451.159L419.101 453.043C419.236 456.541 422.077 459.367 425.526 459.434H425.593L456.297 459.905H456.5C456.77 460.444 457.379 460.78 457.988 460.78C458.461 460.78 458.867 460.578 459.137 460.309C459.34 460.107 459.611 460.107 459.881 460.242C460.355 460.578 460.896 460.78 461.437 460.78C461.978 460.78 462.451 460.511 462.789 460.174C462.992 459.973 463.33 459.905 463.533 460.107C464.074 460.511 464.751 460.847 465.359 460.847C466.036 460.847 466.577 460.578 466.982 460.107C467.05 460.04 467.118 459.973 467.185 459.973H467.591C467.659 459.973 467.726 460.04 467.726 460.04C468.267 460.511 468.944 460.847 469.62 460.847C470.364 460.847 470.973 460.511 471.378 459.973C471.446 459.838 473.204 456.609 472.596 456.609Z" fill="black"/>
<path d="M476.586 459.165C476.451 456.003 474.422 453.177 471.378 452.101L450.008 445.642C449.196 445.373 448.384 445.777 448.114 446.584C447.302 449.275 445.273 455.061 441.283 459.165H420.048C419.236 459.165 418.56 459.838 418.56 460.645C418.56 461.453 419.236 462.125 420.048 462.125H475.098C475.91 462.125 476.586 461.453 476.586 460.645V459.165Z" fill="#21252B"/>
<path opacity="0.4" d="M476.586 459.165C476.518 456.609 475.166 454.388 473.137 452.975C475.774 454.859 472.596 456.743 468.809 456.609C449.128 455.667 446.558 455.667 444.259 455.465C444.327 455.398 444.327 455.33 444.327 455.263C443.447 456.609 442.501 457.954 441.351 459.098H420.115C419.304 459.098 418.627 459.771 418.627 460.578C418.627 461.386 419.304 462.058 420.115 462.058H475.166C475.977 462.058 476.654 461.386 476.654 460.578V459.165H476.586Z" fill="black"/>
<path opacity="0.4" d="M476.586 458.694H441.757L441.283 459.165H476.586V458.694Z" fill="black"/>
<path opacity="0.2" d="M269.978 263.786L263.823 290.294C261.592 299.78 254.626 307.652 245.225 310.545C242.655 311.352 239.883 311.756 237.11 311.756H204.445L209.72 270.648L269.978 263.786Z" fill="black"/>
<path d="M269.978 263.786L261.254 284.306C256.925 294.6 246.781 301.26 235.554 301.26H202.889L208.164 260.153L269.978 263.786Z" fill="#61A0FF"/>
<path opacity="0.4" d="M292.769 221.803C291.619 198.861 292.228 147.863 292.363 145.71L283.166 143.49L284.451 219.045C284.451 219.045 293.986 245.217 292.769 221.803Z" fill="black"/>
<path d="M90.6245 462.193H196.803C201.063 462.193 204.512 458.762 204.512 454.523V247.908C204.512 243.669 201.063 240.238 196.803 240.238H98.3342C94.0735 240.238 90.6245 243.669 90.6245 247.908V462.193Z" fill="#AAAAAA"/>
<path d="M194.909 241.113H118.894C118.691 241.113 118.555 240.911 118.555 240.642C118.555 240.372 118.691 240.171 118.894 240.171H194.977C195.18 240.171 195.315 240.372 195.315 240.642C195.315 240.911 195.112 241.113 194.909 241.113Z" fill="#CCCCCC"/>
<path opacity="0.15" d="M339.907 262.036L339.636 263.786H345.655L347.211 262.036H339.907Z" fill="black"/>
<path d="M250.974 118.799C250.501 133.331 254.153 141.741 246.037 141.472C233.052 141.001 222.908 128.89 223.381 114.358C223.855 99.8258 234.81 88.3883 247.863 88.8593C250.298 101.441 251.515 104.266 250.974 118.799Z" fill="#21252B"/>
<path d="M280.399 142.665C293.433 142.533 303.895 132.185 303.766 119.553C303.636 106.921 292.965 96.7869 279.932 96.9188C266.897 97.0506 256.436 107.398 256.565 120.031C256.694 132.663 267.365 142.797 280.399 142.665Z" fill="#21252B"/>
<path d="M251.177 108.909L249.418 140.261C249.351 141.472 248.472 142.548 247.254 142.817L237.38 144.97L249.418 165.423L283.233 155.735V143.49L281.001 142.952C279.784 142.683 278.905 141.606 278.837 140.328L277.687 105.814L251.177 108.909Z" fill="#CCCCCC"/>
<path d="M269.978 132.187L268.558 132.12C258.481 131.784 250.636 123.374 250.974 113.349L251.853 87.9174C251.988 84.5534 254.761 81.9295 258.143 82.0641L282.016 82.8715C286.412 83.006 289.793 86.6391 289.658 91.0123L288.846 114.627C288.508 124.719 280.055 132.524 269.978 132.187Z" fill="#CCCCCC"/>
<g opacity="0.3">
<path opacity="0.3" d="M274.915 124.45H274.847C272.886 124.45 271.871 124.45 271.871 124.45C271.533 124.45 271.195 124.181 271.195 123.777C271.195 123.441 271.466 123.104 271.871 123.104C271.871 123.104 272.886 123.104 274.847 123.104C275.185 123.104 275.523 123.374 275.523 123.777C275.456 124.114 275.253 124.383 274.915 124.45Z" fill="black"/>
</g>
<g opacity="0.3">
<path opacity="0.3" d="M274.982 121.624C269.504 122.028 267.273 118.933 266.529 117.386C266.393 117.049 266.529 116.713 266.799 116.578C267.137 116.444 267.475 116.578 267.611 116.848C268.355 118.328 270.654 121.49 277.011 120.077C277.89 119.942 278.093 121.019 277.349 121.288C276.538 121.49 275.726 121.624 274.982 121.624Z" fill="black"/>
</g>
<path d="M269.437 108.639C270.52 108.639 271.398 107.766 271.398 106.688C271.398 105.611 270.52 104.737 269.437 104.737C268.353 104.737 267.475 105.611 267.475 106.688C267.475 107.766 268.353 108.639 269.437 108.639Z" fill="#21252B"/>
<path d="M270.181 107.967C270.404 107.967 270.586 107.786 270.586 107.563C270.586 107.34 270.404 107.159 270.181 107.159C269.957 107.159 269.775 107.34 269.775 107.563C269.775 107.786 269.957 107.967 270.181 107.967Z" fill="white"/>
<path d="M284.653 110.052C285.737 110.052 286.615 109.179 286.615 108.101C286.615 107.023 285.737 106.15 284.653 106.15C283.57 106.15 282.692 107.023 282.692 108.101C282.692 109.179 283.57 110.052 284.653 110.052Z" fill="#21252B"/>
<path d="M285.533 109.312C285.757 109.312 285.938 109.131 285.938 108.909C285.938 108.686 285.757 108.505 285.533 108.505C285.309 108.505 285.127 108.686 285.127 108.909C285.127 109.131 285.309 109.312 285.533 109.312Z" fill="white"/>
<g opacity="0.3">
<path opacity="0.3" d="M277.485 116.377H274.779C274.441 116.377 274.171 116.107 274.171 115.771C274.171 115.435 274.441 115.166 274.779 115.166H277.485C278.161 115.166 278.702 114.627 278.702 113.955C278.702 113.282 278.161 112.744 277.485 112.744C277.146 112.744 276.876 112.474 276.876 112.138C276.876 111.802 277.146 111.533 277.485 111.533C278.77 111.533 279.852 112.609 279.852 113.887C279.852 115.3 278.837 116.377 277.485 116.377Z" fill="black"/>
</g>
<path d="M296.556 103.392C293.783 101.171 295.203 97.4038 295.203 97.4038C295.88 95.8564 296.353 94.1071 296.556 92.2233C297.165 86.1681 294.054 83.6115 292.363 82.6696C291.754 82.3332 291.416 81.6604 291.416 80.9876C291.619 62.0149 265.988 55.556 251.515 65.7825C242.791 71.9722 240.288 79.3729 240.424 86.5718C240.424 86.5718 240.627 89.734 237.651 91.0795L241.1 92.8288C242.114 98.2111 244.008 103.123 245.022 106.957C245.428 108.572 248.945 102.181 250.365 101.575C250.568 101.508 251.718 103.392 252.462 104.603C252.935 105.343 254.085 105.343 254.423 104.535C255.64 101.441 256.317 98.1439 256.452 94.7799L256.587 91.7523C263.282 91.3487 266.326 85.2262 266.326 85.2262C272.277 92.9634 283.301 93.0306 287.832 92.6942C288.914 92.627 289.793 93.4343 289.726 94.5108L289.32 105.881C289.32 105.881 291.146 104.334 292.972 101.71L295.812 104.064L296.556 103.392Z" fill="#21252B"/>
<path d="M252.259 114.493C252.259 114.493 243.535 115.233 241.641 106.688C239.747 98.1438 250.433 96.4619 251.988 105.074L253.206 114.493H252.259Z" fill="#CCCCCC"/>
<path opacity="0.3" d="M244.279 102.113C245.225 101.44 246.105 101.239 246.916 101.373C247.728 101.508 248.472 102.113 249.013 103.055C249.621 103.997 249.959 105.141 250.027 106.419L250.095 107.361C250.162 108.034 248.945 108.236 248.945 107.496C248.877 106.487 248.877 106.487 248.877 106.487C248.877 106.217 248.674 104.603 248.066 103.728C247.66 103.055 247.187 102.652 246.713 102.584C246.172 102.45 245.631 102.652 244.955 103.123C244.684 103.324 244.346 103.257 244.143 102.988C244.008 102.652 244.076 102.315 244.279 102.113Z" fill="black"/>
<path d="M286.885 100.162C284.383 100.162 282.151 101.306 280.731 103.123C278.634 102.181 276.673 102.517 275.862 102.786C274.577 100.23 271.871 98.413 268.761 98.413C264.365 98.413 260.848 101.979 260.848 106.285C260.848 110.658 264.432 114.156 268.761 114.156C273.089 114.156 276.673 110.591 276.673 106.285C276.673 105.343 276.538 104.535 276.2 103.661C276.944 103.459 278.499 103.257 280.122 103.93C279.378 105.141 278.973 106.554 278.973 108.034C278.973 112.407 282.557 115.906 286.885 115.906C291.281 115.906 294.798 112.34 294.798 108.034C294.798 103.661 291.281 100.162 286.885 100.162ZM268.761 113.147C264.973 113.147 261.862 110.052 261.862 106.285C261.862 102.517 264.973 99.4222 268.761 99.4222C272.548 99.4222 275.659 102.517 275.659 106.285C275.659 110.052 272.548 113.147 268.761 113.147ZM286.885 114.896C283.098 114.896 279.987 111.802 279.987 108.034C279.987 104.266 283.098 101.171 286.885 101.171C290.672 101.171 293.783 104.266 293.783 108.034C293.783 111.802 290.74 114.896 286.885 114.896Z" fill="white"/>
<path d="M249.892 113.214C250.863 113.214 251.65 112.431 251.65 111.465C251.65 110.499 250.863 109.716 249.892 109.716C248.921 109.716 248.134 110.499 248.134 111.465C248.134 112.431 248.921 113.214 249.892 113.214Z" fill="#61A0FF"/>
<path opacity="0.15" d="M250.501 112.945C249.486 112.945 248.607 112.138 248.607 111.061C248.607 110.725 248.742 110.389 248.877 110.052C248.404 110.389 248.134 110.86 248.134 111.465C248.134 112.407 248.877 113.214 249.892 113.214C250.23 113.214 250.636 113.08 250.906 112.878C250.771 112.945 250.636 112.945 250.501 112.945Z" fill="black"/>
<path d="M237.313 144.97C237.313 144.97 268.422 200.61 271.127 262.709L301.02 262.777L300.276 260.085C288.914 224.966 282.083 164.01 283.233 143.49C281.813 153.986 262.674 161.857 245.902 151.16C243.602 149.747 237.313 144.97 237.313 144.97Z" fill="white"/>
<path d="M264.838 159.503C264.567 159.503 264.297 159.503 264.026 159.503C254.288 159.234 245.496 154.524 242.588 151.429C242.385 151.227 242.385 150.891 242.588 150.689C242.791 150.487 243.129 150.487 243.332 150.689C246.172 153.784 254.964 158.157 264.026 158.426C270.992 158.628 276.944 156.408 281.61 151.9C281.813 151.698 282.151 151.698 282.354 151.9C282.557 152.102 282.557 152.438 282.354 152.64C277.688 157.215 271.736 159.503 264.838 159.503Z" fill="#CCCCCC"/>
<path d="M248.066 241.449L284.856 249.994L304.807 250.666C306.904 250.801 307.918 251.406 309.406 253.088L319.144 262.709C319.821 263.517 320.024 264.459 319.28 265.199C318.468 265.939 317.86 265.535 317.048 264.795L305.28 255.107L311.841 264.93C312.584 266.073 312.787 267.352 311.502 267.621C310.758 267.823 310.014 267.553 309.541 266.948L300.479 255.578L307.377 264.257C308.188 265.266 307.715 266.813 306.43 267.15C305.821 267.284 305.145 267.15 304.739 266.679L294.798 257.26L301.561 263.651C302.372 264.391 302.169 265.67 301.223 266.208C300.749 266.477 300.141 266.477 299.667 266.208L290.199 260.758C289.252 260.22 288.17 260.153 287.156 260.489L283.098 261.902C279.784 263.046 276.403 262.507 272.886 262.037L241.506 259.009L248.066 241.449Z" fill="#CCCCCC"/>
<path opacity="0.15" d="M289.59 259.547C286.276 260.691 282.895 260.153 279.378 259.682L258.345 256.452L258.143 243.535L252.597 260.018L272.886 261.969C276.335 262.44 279.784 262.911 283.098 261.835L287.156 260.422C288.17 260.085 289.252 260.153 290.199 260.691L289.59 259.547Z" fill="black"/>
<path opacity="0.15" d="M301.425 263.988C301.358 263.988 301.29 263.92 301.223 263.92L295.001 258.067C294.865 257.932 294.865 257.731 295.001 257.596C295.136 257.461 295.339 257.461 295.474 257.596L301.696 263.449C301.831 263.584 301.831 263.786 301.696 263.92C301.628 263.92 301.561 263.988 301.425 263.988Z" fill="black"/>
<path opacity="0.15" d="M307.309 264.593C307.242 264.593 307.174 264.526 307.106 264.459L300.614 256.318C300.479 256.183 300.546 255.981 300.682 255.847C300.817 255.712 301.02 255.78 301.155 255.914L307.647 264.055C307.783 264.189 307.715 264.391 307.58 264.526C307.512 264.526 307.445 264.593 307.309 264.593Z" fill="black"/>
<path opacity="0.15" d="M292.498 259.884C294.595 261.296 298.247 263.718 299.464 264.593C301.223 265.871 301.899 264.593 301.966 264.526C302.034 265.131 301.764 265.804 301.155 266.14C300.682 266.41 300.073 266.41 299.599 266.14L290.131 260.691C289.185 260.153 288.102 260.085 287.088 260.422L289.185 259.547C290.267 259.143 291.484 259.278 292.498 259.884Z" fill="black"/>
<path d="M258.143 243.535L232.984 237.479L204.986 239.498C206.406 248.379 210.396 255.914 219.256 257.058L252.529 260.018L258.143 243.535Z" fill="#61A0FF"/>
<path opacity="0.15" d="M223.787 252.685C216.483 251.743 213.034 245.553 210.87 239.094L200.996 175.986C199.305 165.02 205.797 154.12 215.942 150.084L213.237 150.756C201.266 153.582 193.421 165.154 195.315 177.264L205.189 240.373C205.189 240.373 205.189 240.373 205.189 240.44C206.744 248.917 210.734 256.049 219.323 257.125L252.597 260.085L254.152 255.443L223.787 252.685Z" fill="black"/>
<path d="M181.248 462.193H231.97V247.908C231.97 243.669 228.521 240.238 224.26 240.238H188.958C184.697 240.238 181.248 243.669 181.248 247.908V462.193Z" fill="#CCCCCC"/>
<path opacity="0.15" d="M267.949 245.082L242.047 238.489L224.734 175.582C224.531 174.977 223.584 175.179 223.652 175.784L232.917 237.547L267.814 246.091C268.084 246.159 268.355 245.957 268.355 245.62C268.422 245.351 268.287 245.082 267.949 245.082Z" fill="black"/>
<path d="M260.78 266.275H327.463C328.004 266.275 328.477 266.746 328.477 267.284V268.966C328.477 269.505 328.004 269.975 327.463 269.975H260.78C260.239 269.975 259.766 269.505 259.766 268.966V267.284C259.833 266.746 260.239 266.275 260.78 266.275Z" fill="#21252B"/>
<path opacity="0.6" d="M260.78 266.275H327.463C328.004 266.275 328.477 266.746 328.477 267.284V268.966C328.477 269.505 328.004 269.975 327.463 269.975H260.78C260.239 269.975 259.766 269.505 259.766 268.966V267.284C259.833 266.746 260.239 266.275 260.78 266.275Z" fill="black"/>
<path d="M305.821 266.275H422.077C422.618 266.275 423.091 266.746 423.091 267.284V268.966C423.091 269.505 422.618 269.975 422.077 269.975H305.821C305.28 269.975 304.807 269.505 304.807 268.966V267.284C304.807 266.746 305.28 266.275 305.821 266.275Z" fill="#21252B"/>
<path opacity="0.2" d="M306.971 169.191L311.908 184.8C313.937 191.259 313.193 197.65 309.609 203.974L306.43 209.222C305.754 210.299 305.551 211.51 305.754 212.788L312.99 258.134L325.366 235.327L325.299 222.947L308.121 168.989C307.918 168.316 306.836 168.518 306.971 169.191Z" fill="black"/>
<g opacity="0.6">
<path opacity="0.6" d="M420.521 266.948H302.237C302.034 266.948 301.899 266.813 301.899 266.611C301.899 266.41 302.034 266.275 302.237 266.275H420.589C420.791 266.275 420.927 266.41 420.927 266.611C420.927 266.813 420.724 266.948 420.521 266.948Z" fill="black"/>
</g>
<path d="M305.551 266.275H323.067C324.419 266.275 325.569 265.333 325.84 263.988L340.515 187.222C340.853 185.473 339.501 183.925 337.742 183.925H320.226C318.874 183.925 317.724 184.867 317.454 186.213L302.778 262.978C302.44 264.66 303.792 266.275 305.551 266.275Z" fill="#21252B"/>
<path opacity="0.6" d="M305.551 266.275H323.067C324.419 266.275 325.569 265.333 325.84 263.988L340.515 187.222C340.853 185.473 339.501 183.925 337.742 183.925H320.226C318.874 183.925 317.724 184.867 317.454 186.213L302.778 262.978C302.44 264.66 303.792 266.275 305.551 266.275Z" fill="black"/>
<path d="M308.053 266.275H420.521C421.874 266.275 423.023 265.333 423.294 263.988L437.969 187.222C438.308 185.473 436.955 183.925 435.197 183.925H322.729C321.376 183.925 320.226 184.867 319.956 186.213L305.28 262.978C304.942 264.66 306.295 266.275 308.053 266.275Z" fill="#21252B"/>
<path opacity="0.6" d="M372.301 222.947C371.625 224.494 372.369 225.84 373.924 225.84C373.992 225.84 374.127 225.84 374.195 225.84C372.369 227.858 369.596 229.271 367.161 229.204C363.848 229.137 362.292 226.446 363.78 223.149C365.2 219.852 369.123 217.296 372.437 217.363C374.533 217.43 375.953 218.507 376.291 220.189C374.668 220.189 372.978 221.4 372.301 222.947Z" fill="black"/>
<path d="M397.324 414.088L401.923 420.479L426.472 411.128L422.617 402.449L397.324 414.088Z" fill="#61A0FF"/>
<path d="M452.104 413.953L456.432 420.479L481.049 411.128L477.127 402.449L452.104 413.953Z" fill="#61A0FF"/>
<path d="M285.465 95.7891C285.465 95.7891 285.397 95.7891 285.465 95.7891C277.755 95.4527 272.683 92.627 269.775 90.3395C266.596 87.8501 265.311 85.4281 265.244 85.3608C265.108 85.0917 265.176 84.8226 265.447 84.688C265.717 84.5535 265.988 84.6207 266.123 84.8898C266.19 84.9571 271.33 94.1744 285.465 94.7799C285.735 94.7799 285.938 95.0491 285.938 95.3182C285.938 95.5873 285.735 95.7891 285.465 95.7891Z" fill="#21252B"/>
<path opacity="0.15" d="M250.974 114.493H253.409L250.5 120.279L250.974 114.493Z" fill="black"/>
<path opacity="0.15" d="M278.499 130.438C275.726 131.784 272.615 132.322 269.369 132.187C268.693 132.187 267.949 132.12 267.273 132.053C267.002 131.985 266.732 131.986 266.461 131.918C266.393 131.918 266.326 131.918 266.258 131.918C265.852 131.851 265.447 131.784 265.041 131.649C264.906 131.582 264.703 131.582 264.567 131.515C261.862 130.774 259.901 129.698 258.616 128.823C258.413 128.689 258.075 128.689 257.94 128.958C257.805 129.16 257.805 129.496 258.075 129.631C259.698 130.774 262.268 132.12 265.852 132.793C267.611 134.34 270.722 136.359 274.78 136.56C276.132 136.628 277.417 136.628 278.702 136.426L278.499 130.438Z" fill="black"/>
<path opacity="0.4" d="M225.275 147.796C229.738 153.784 250.974 186.347 267.475 231.492C259.36 185.002 237.313 144.97 237.313 144.97L225.275 147.796Z" fill="black"/>
</g>
<defs>
<linearGradient id="paint0_linear" x1="366.587" y1="269.908" x2="366.587" y2="415.635" gradientUnits="userSpaceOnUse">
<stop stop-color="#94BFFF"/>
<stop offset="1" stop-color="#61A0FF"/>
</linearGradient>
<linearGradient id="paint1_linear" x1="312.178" y1="269.908" x2="312.178" y2="415.635" gradientUnits="userSpaceOnUse">
<stop stop-color="#94BFFF"/>
<stop offset="1" stop-color="#61A0FF"/>
</linearGradient>
<clipPath id="clip0">
<rect width="642" height="463" fill="white"/>
</clipPath>
</defs>
</svg>
